<?xml version="1.0" standalone="no"?>
<!DOCTYPE svg PUBLIC "-//W3C//DTD SVG 20010904//EN"
 "http://www.w3.org/TR/2001/REC-SVG-20010904/DTD/svg10.dtd">
<svg version="1.0" xmlns="http://www.w3.org/2000/svg"
 width="1000.000000pt" height="600.000000pt" viewBox="0 0 1000.000000 600.000000"
 preserveAspectRatio="xMidYMid meet">

<g transform="translate(0.000000,600.000000) scale(0.100000,-0.100000)"
fill="#000000" stroke="none">
<path d="M0 3000 l0 -3000 2935 0 c1614 0 2935 4 2935 8 0 4 -6 14 -12 21 -10
11 -10 13 0 7 8 -5 12 1 12 19 0 15 -4 24 -10 20 -15 -9 -23 21 -11 43 8 15 7
23 -4 32 -13 11 -15 5 -15 -39 0 -32 -4 -50 -10 -46 -5 3 -10 22 -10 41 0 23
-4 33 -11 28 -19 -11 -29 18 -27 81 0 33 3 47 5 30 7 -44 23 -56 23 -15 0 43
8 34 19 -21 l9 -44 1 44 c1 37 3 42 16 31 13 -10 15 -9 15 9 0 12 4 20 9 17 5
-3 7 -15 4 -26 -4 -14 0 -20 11 -20 9 0 16 8 16 20 0 11 4 20 9 20 5 0 12 10
14 23 3 12 4 0 4 -26 0 -29 4 -52 12 -56 7 -5 14 -35 16 -72 2 -35 2 -54 -1
-42 -8 33 -24 28 -24 -7 0 -23 -4 -30 -20 -30 -15 0 -20 -7 -20 -25 l0 -25
160 0 c112 0 160 3 160 11 0 8 4 8 14 0 9 -7 61 -11 150 -10 120 1 136 3 136
17 1 15 2 15 11 0 8 -15 24 -18 79 -18 68 0 70 1 70 26 0 30 20 22 21 -9 1
-20 2 -20 9 3 8 24 8 24 9 3 1 -18 7 -23 27 -23 l26 0 -4 110 c-2 70 1 109 7
107 6 -2 11 -27 13 -55 2 -32 8 -52 15 -52 7 0 6 -4 -3 -10 -12 -8 -11 -10 8
-10 17 0 22 6 22 24 0 32 36 43 42 12 6 -29 -1 -46 -17 -46 -8 0 -19 -9 -25
-20 -6 -11 -17 -20 -24 -20 -10 0 -12 -7 -8 -22 3 -12 7 -17 9 -11 3 8 15 10
34 6 22 -4 29 -2 29 10 0 19 24 29 39 14 8 -8 11 -7 11 6 0 9 -7 17 -15 17
-17 0 -20 32 -5 60 7 13 7 21 0 25 -18 11 -11 54 10 65 19 10 20 7 21 -82 1
-51 1 -101 0 -110 -2 -15 6 -18 53 -18 l55 0 4 38 4 37 1 -37 c4 -76 21 -36
25 55 l3 92 2 -92 2 -93 31 0 c30 0 31 1 24 36 -4 24 -3 34 4 29 6 -3 11 -19
11 -36 0 -37 17 -38 23 -1 l4 27 2 -27 c1 -28 2 -28 70 -28 l70 0 4 33 4 32 1
-32 c4 -64 22 -32 24 40 l2 72 5 -70 6 -69 40 -1 c26 0 42 5 47 15 5 12 7 11
7 -3 1 -17 12 -18 159 -15 146 3 157 4 154 22 -2 11 1 15 7 11 6 -3 11 -14 11
-23 0 -12 3 -13 12 -4 9 9 9 22 1 52 -5 22 -7 40 -3 40 12 0 20 -28 20 -66 0
-52 18 -41 23 14 l3 47 2 -47 2 -48 1080 0 1080 0 0 3000 0 3000 -5000 0
-5000 0 0 -3000z m2958 1450 c-304 -302 -555 -550 -558 -550 -3 0 -64 59 -135
130 l-130 130 420 420 420 420 268 0 267 0 -552 -550z m3817 -171 c25 -6 49
-21 64 -40 19 -25 29 -30 50 -26 23 5 29 1 40 -26 7 -18 17 -41 22 -52 5 -11
13 -61 18 -112 6 -65 15 -102 30 -128 12 -21 20 -40 17 -42 -3 -3 -27 -1 -53
5 -26 6 -92 13 -146 16 -89 4 -101 2 -143 -20 -26 -14 -53 -23 -60 -20 -7 3
-17 -1 -23 -8 -15 -18 6 -79 24 -72 7 2 26 1 42 -4 26 -8 27 -9 7 -15 -23 -7
-26 -36 -6 -43 7 -2 12 -12 12 -23 0 -17 4 -20 25 -19 3 0 18 -6 33 -13 42
-21 184 -12 235 15 15 7 16 12 6 24 -9 10 -9 17 0 28 9 11 4 17 -23 30 -19 9
-49 15 -68 15 -27 -1 -28 -3 -8 -6 13 -3 33 -11 44 -19 20 -14 20 -14 1 -14
-11 0 -42 6 -70 13 -40 11 -46 15 -30 21 19 7 19 8 -4 20 -20 11 -12 14 75 19
138 9 153 2 191 -87 33 -76 63 -224 64 -315 0 -31 4 -65 9 -76 7 -18 9 -16 22
15 9 19 18 43 21 52 4 11 12 15 22 12 23 -9 45 15 45 50 l-1 31 -29 -35 c-33
-38 -36 -32 -19 36 9 36 16 45 29 41 14 -4 20 3 24 29 13 65 51 50 42 -16 -16
-125 -62 -235 -121 -287 -29 -26 -35 -38 -35 -71 0 -21 -7 -61 -16 -88 -9 -29
-18 -103 -21 -182 -5 -111 -3 -140 12 -178 29 -77 6 -171 -64 -260 -12 -15
-21 -35 -21 -45 0 -10 -9 -24 -19 -31 -11 -8 -25 -27 -32 -43 -7 -17 -21 -41
-31 -54 -10 -13 -18 -34 -18 -47 0 -34 -41 -59 -71 -44 -21 12 -21 11 -15 -26
5 -29 4 -35 -4 -24 -9 13 -15 10 -40 -19 -22 -26 -28 -40 -23 -62 3 -18 1 -29
-5 -29 -15 0 -35 -38 -27 -50 4 -6 15 -4 28 5 12 8 27 15 34 15 21 0 15 -26
-9 -38 l-23 -11 23 -7 c12 -3 22 -13 22 -21 0 -17 -36 -9 -63 15 -16 14 -21
14 -49 -2 -31 -19 -34 -19 -171 -2 -10 1 -25 11 -35 21 -9 10 -12 15 -5 11 6
-3 15 -1 18 4 8 14 -23 50 -42 50 -17 0 -87 44 -137 86 -21 18 -43 31 -47 28
-5 -3 -9 1 -9 8 0 7 -17 31 -37 54 -21 22 -46 54 -56 70 -9 16 -33 52 -52 79
-57 81 -61 111 -55 375 2 71 -2 126 -9 144 -6 16 -10 34 -8 40 3 6 -1 18 -8
26 -6 8 -26 53 -44 100 -36 93 -42 103 -68 106 -10 2 -22 10 -28 19 -5 10 -22
33 -37 52 -16 20 -28 45 -28 56 0 11 -7 28 -15 36 -14 17 -36 126 -27 136 11
11 22 4 22 -14 0 -10 7 -24 15 -31 10 -8 15 -30 15 -62 0 -45 2 -50 29 -59 22
-8 31 -19 35 -44 4 -18 13 -39 22 -46 17 -14 15 6 -11 176 -13 84 -10 131 21
315 9 52 20 109 25 125 11 41 11 166 0 243 -7 52 -2 126 11 137 18 15 119 65
133 65 10 0 27 8 37 17 15 13 42 17 131 19 62 1 120 5 130 9 10 4 44 5 75 3
31 -3 86 -2 122 2 36 4 74 5 85 3 11 -2 38 -9 60 -14z m-3617 -414 c-196 -195
-360 -355 -365 -355 -4 0 -67 58 -138 130 l-130 130 65 66 c71 72 240 238 335
327 l60 57 265 0 264 0 -356 -355z m3606 -213 c-24 -6 -43 16 -24 28 11 7 19
5 28 -8 11 -14 10 -18 -4 -20z m455 -1184 c0 -45 -3 -56 -8 -38 -7 24 -3 100
5 100 2 0 4 -28 3 -62z m31 26 c0 -8 -4 -12 -10 -9 -5 3 -10 10 -10 16 0 5 5
9 10 9 6 0 10 -7 10 -16z m-63 -86 c-2 -18 -4 -4 -4 32 0 36 2 50 4 33 2 -18
2 -48 0 -65z m94 59 c-1 -12 -15 -9 -19 4 -3 6 1 10 8 8 6 -3 11 -8 11 -12z
m29 -48 c0 -11 7 -19 18 -20 11 0 12 -2 4 -6 -7 -3 -19 1 -27 7 -17 14 -21 55
-5 45 6 -3 10 -15 10 -26z m205 -4 c20 -3 71 -16 113 -30 42 -14 84 -25 92
-25 32 0 345 -102 356 -115 6 -8 14 -12 17 -8 10 9 98 -19 104 -34 3 -7 17
-13 32 -13 15 0 35 -6 46 -14 11 -7 33 -16 48 -20 15 -4 35 -15 45 -26 9 -11
24 -20 33 -20 24 0 141 -128 160 -175 29 -71 41 -122 34 -144 -4 -13 -2 -28 6
-37 10 -12 9 -13 -5 -8 -9 3 -16 10 -16 15 0 18 -32 8 -37 -11 -7 -25 -11 -25
-40 2 -33 30 -29 17 7 -23 33 -38 38 -54 14 -45 -15 6 -15 4 0 -19 21 -33 9
-32 -25 1 -26 25 -27 25 -22 5 3 -11 1 -21 -5 -21 -6 0 -4 -12 4 -30 19 -36
28 -39 20 -5 -9 33 8 32 23 -2 8 -18 9 -29 2 -31 -5 -2 -7 -10 -4 -18 4 -10 0
-12 -11 -8 -20 8 -21 -9 -1 -26 8 -7 15 -17 15 -23 0 -5 -10 -2 -22 9 -21 19
-21 19 -14 -1 20 -50 17 -57 -9 -20 -44 64 -47 67 -55 55 -5 -8 -14 -2 -27 17
-33 47 -35 53 -19 47 9 -3 16 -12 16 -19 0 -7 7 -18 15 -25 19 -16 21 5 3 25
-7 7 -21 23 -31 35 -22 27 -26 24 -31 -26 -2 -21 -7 -55 -11 -76 -7 -36 -7
-36 -26 -17 -20 20 -26 34 -9 24 6 -3 10 3 10 14 0 11 5 23 10 26 6 3 10 38
10 77 0 58 3 69 15 64 16 -6 18 -2 9 31 -5 20 -7 20 -23 5 -10 -11 -15 -28
-13 -44 2 -15 1 -36 -3 -45 -5 -10 -7 -24 -6 -30 1 -8 -5 -10 -15 -6 -12 4
-15 3 -10 -5 4 -7 3 -19 -2 -28 -9 -16 -12 2 -28 171 -16 163 -22 178 -19 50
3 -104 2 -118 -5 -70 -5 33 -13 80 -18 105 l-9 45 -2 -49 c-1 -64 -19 -49 -23
19 -2 29 -7 48 -13 45 -5 -3 -9 -13 -8 -22 2 -10 -2 -18 -7 -18 -6 0 -10 -12
-10 -26 0 -27 -17 -65 -34 -76 -6 -4 -10 -25 -10 -47 1 -22 -2 -38 -7 -35 -5
3 -9 12 -9 20 0 8 -4 12 -10 9 -5 -3 -10 -17 -10 -30 0 -13 5 -27 10 -30 6 -3
10 -26 10 -51 0 -24 -4 -44 -10 -44 -5 0 -10 19 -11 43 0 23 -4 60 -8 82 -8
39 -9 39 -10 8 -1 -40 -18 -44 -24 -5 -2 15 -2 -20 1 -78 3 -58 1 -102 -3 -98
-4 4 -10 26 -12 48 -11 109 -21 118 -16 15 5 -90 3 -108 -8 -98 -8 8 -12 33
-11 65 1 29 -2 78 -7 108 -8 45 -8 37 -4 -42 5 -90 4 -97 -16 -110 -11 -7 -21
-16 -21 -21 0 -4 4 -6 9 -3 5 3 11 -3 14 -14 3 -11 11 -19 18 -18 14 3 14 0 9
-97 -3 -57 -3 -58 -10 -20 l-6 40 -7 -35 c-4 -19 -8 -46 -10 -60 -3 -14 -5 6
-6 44 -1 57 1 67 14 62 11 -4 15 2 15 24 0 27 -3 30 -32 29 -18 -1 -25 -3 -15
-6 23 -6 22 -10 -17 -49 -28 -28 -35 -31 -40 -18 -13 34 -19 2 -6 -35 7 -22 9
-48 5 -58 -6 -13 -12 -2 -25 47 -21 75 -26 54 -8 -32 9 -45 9 -61 0 -70 -9 -9
-12 -3 -12 27 -1 22 -7 54 -15 70 -17 38 -19 19 -3 -38 6 -26 8 -52 3 -63 -7
-16 -10 -14 -15 16 l-7 35 -2 -42 c-1 -40 1 -43 24 -43 14 0 28 0 33 -1 4 0
10 10 14 23 l6 23 1 -22 c1 -26 41 -33 41 -8 0 19 14 19 29 1 18 -21 -14 -41
-61 -37 -34 2 -40 0 -35 -13 5 -12 0 -16 -17 -16 -14 0 -26 6 -28 12 -4 10
-10 10 -29 1 -13 -6 -18 -12 -11 -12 6 -1 12 -10 12 -21 0 -23 16 -25 57 -8
36 14 56 16 65 4 4 -6 13 -5 22 3 8 7 24 10 35 6 11 -3 23 -1 27 6 5 9 11 7
21 -6 12 -17 13 -15 13 18 0 33 -3 37 -26 37 -24 0 -25 3 -19 28 3 15 11 32
16 37 7 7 8 1 4 -17 -6 -24 -4 -28 13 -28 11 0 23 7 26 16 3 8 10 12 16 9 6
-3 13 2 17 12 6 16 8 15 14 -7 5 -17 7 -8 8 33 1 33 5 57 12 57 9 0 9 -119 -1
-155 -6 -25 1 -66 10 -60 6 4 8 16 4 28 -6 22 -6 22 10 2 19 -25 20 -59 3 -77
-11 -10 -11 -38 -4 -138 9 -121 10 -250 2 -258 -15 -15 -25 20 -25 89 0 56 -4
79 -12 79 -10 0 -10 2 0 8 8 5 11 24 9 48 -2 32 -6 38 -21 36 -11 -2 -23 2
-28 10 -8 10 -11 10 -15 0 -2 -6 -8 -10 -12 -8 -4 3 -12 -3 -18 -12 -9 -16 -6
-17 26 -15 38 3 34 -1 -11 -11 -18 -4 -28 -13 -28 -24 0 -10 -9 -28 -21 -41
-12 -13 -19 -30 -16 -42 3 -10 1 -19 -3 -19 -31 0 -21 85 11 93 12 3 18 10 14
16 -3 6 -11 9 -16 5 -6 -3 -17 4 -26 16 -8 12 -21 19 -28 16 -7 -2 -18 1 -24
7 -8 8 -11 7 -11 -5 0 -11 -8 -14 -30 -12 -30 4 -30 3 -32 -49 l-2 -52 -3 50
-4 50 -49 2 c-38 1 -50 -3 -50 -14 0 -30 -35 -8 -42 27 -5 24 -6 18 -3 -22 4
-63 -9 -77 -24 -25 l-9 32 -1 -35 c-1 -35 -14 -33 -24 5 -3 11 -4 -36 -3 -105
2 -69 2 -102 -1 -75 -2 28 -6 57 -9 65 -3 8 -8 40 -11 70 -6 78 -13 75 -13 -5
0 -71 -7 -79 -20 -23 -6 27 -8 20 -9 -36 -1 -56 -3 -66 -14 -57 -19 15 -38
-29 -31 -69 4 -19 2 -30 -5 -30 -6 0 -12 20 -12 48 -2 44 -2 45 -8 12 -8 -45
-17 -30 -26 43 -4 31 -12 57 -17 57 -7 0 -8 -19 -4 -52 4 -29 10 -81 13 -116
5 -59 15 -76 27 -49 5 9 7 9 12 0 10 -23 25 -14 18 12 -5 22 -3 25 20 25 22 0
26 5 28 33 l1 32 4 -33 c4 -33 15 -38 61 -26 13 4 22 14 22 26 0 10 5 16 10
13 6 -4 8 -10 5 -15 -3 -5 -1 -11 5 -15 6 -4 10 5 10 22 0 21 3 24 9 13 6 -8
8 -17 5 -21 -2 -4 3 -9 11 -12 12 -5 13 12 8 115 -5 100 -3 120 8 116 10 -3
15 -25 17 -71 2 -56 5 -65 19 -60 14 5 15 0 10 -35 -3 -23 -2 -40 3 -37 9 6
18 -35 12 -54 -3 -10 -6 -11 -12 -1 -13 20 -32 0 -26 -26 7 -26 -8 -33 -18 -9
-8 21 -56 39 -69 26 -5 -5 -23 -7 -38 -4 -19 3 -29 1 -29 -6 0 -7 -12 -11 -27
-9 -25 3 -29 -1 -34 -32 -4 -19 -7 -29 -8 -22 -3 29 -21 9 -22 -25 -1 -42 -3
-38 -15 22 -8 38 -9 36 -14 -35 l-6 -75 -2 71 c-1 38 -7 75 -12 80 -6 6 -13
80 -17 166 l-6 156 -43 0 c-26 1 -47 -4 -54 -13 -9 -11 -9 -15 -1 -15 6 0 11
-17 11 -40 0 -31 4 -40 17 -40 13 0 14 3 5 12 -14 14 -16 68 -3 68 13 0 21
-65 19 -150 l-2 -75 -3 63 c-4 62 -12 72 -42 53 -9 -6 -11 -16 -7 -27 5 -14 9
-15 15 -5 12 18 20 -29 10 -55 -4 -10 -8 -13 -8 -6 -1 6 -5 12 -9 12 -12 0 -6
-90 7 -103 8 -8 11 -4 11 14 1 21 2 22 11 6 13 -23 7 -63 -9 -59 -17 3 -15
-25 2 -31 14 -6 29 -57 16 -57 -11 0 -20 -39 -10 -45 5 -3 11 1 13 7 3 7 6 3
6 -9 2 -48 20 -20 24 34 l3 58 2 -63 c2 -58 4 -63 30 -74 15 -6 36 -13 47 -15
11 -2 25 -9 30 -16 6 -7 20 -11 33 -9 12 2 22 -1 22 -7 0 -5 8 -12 18 -14 13
-4 12 -5 -5 -6 -12 0 -25 4 -28 9 -4 6 -12 10 -18 9 -7 -1 -25 3 -40 9 -16 7
-35 12 -43 12 -8 0 -14 4 -14 9 0 5 -14 11 -31 15 -16 3 -37 12 -44 20 -8 8
-19 16 -25 18 -11 3 -13 17 -30 243 -6 77 -13 150 -16 163 -2 12 0 22 5 22 5
0 12 -10 14 -22 4 -20 4 -19 6 5 1 17 -4 27 -13 27 -10 0 -17 17 -21 57 -8 71
-13 88 -14 47 -1 -17 -4 -47 -8 -65 l-8 -34 -6 40 c-6 40 -6 40 -8 -12 0 -28
-5 -54 -10 -57 -10 -7 -26 204 -18 244 2 14 5 -5 6 -41 1 -46 6 -70 16 -79 18
-15 18 -14 4 66 -8 44 -8 68 0 81 8 14 10 9 11 -29 0 -27 4 -48 8 -48 4 0 6
27 4 60 -2 39 0 60 7 60 6 0 12 -22 12 -52 l2 -53 7 50 c4 28 3 76 -3 108 -8
51 -7 60 8 71 17 12 17 13 -4 19 -18 4 -21 1 -21 -26 0 -68 -17 -56 -28 20
-15 94 -15 103 -2 103 6 0 10 -21 10 -46 0 -26 4 -43 10 -39 5 3 8 28 6 55 -2
28 0 53 5 56 5 3 9 -20 9 -52 0 -49 2 -55 15 -44 19 15 22 13 29 -23 3 -19 0
-27 -9 -27 -26 0 -28 -39 -3 -60 25 -21 32 -23 65 -14 15 4 21 13 19 30 -2 13
-6 27 -9 31 -4 3 -7 25 -7 47 0 23 -4 46 -8 53 -4 7 -5 31 -3 55 l5 43 8 -45
c9 -43 26 -172 27 -197 2 -27 20 -11 24 20 4 31 4 31 5 -5 1 -21 7 -38 12 -38
6 0 9 20 8 45 0 25 2 48 5 52 7 6 12 -33 9 -72 -2 -19 -1 -19 9 -2 7 11 8 38
4 69 -5 36 -4 49 4 44 7 -5 11 3 10 21 0 24 -1 25 -9 8 -9 -22 -15 -12 -23 35
-2 14 -5 1 -6 -27 0 -29 -5 -53 -10 -53 -10 0 -26 158 -17 167 3 4 7 -1 7 -10
2 -30 4 -35 12 -44 5 -4 7 3 6 17 -6 71 6 104 17 44 8 -44 16 -44 12 1 -3 35
0 40 20 43 15 2 22 10 22 25 0 46 19 -2 30 -78 6 -44 15 -98 20 -120 7 -40 7
-40 9 15 0 31 -3 60 -8 65 -6 6 -13 52 -17 103 -4 51 -11 95 -15 98 -5 3 -10
20 -10 37 -1 26 -3 22 -11 -18 -5 -27 -9 -58 -9 -67 0 -39 -19 -26 -21 14 l-1
43 -4 -37 c-2 -21 -8 -38 -14 -38 -13 0 -10 58 6 105 l13 40 1 -32 c1 -44 21
-42 21 2 0 19 -4 35 -10 35 -5 0 -10 7 -10 15 0 18 31 20 48 3 7 -7 12 -30 12
-52 0 -22 7 -67 15 -100 8 -34 16 -74 19 -91 2 -16 2 8 -1 55 -2 47 -1 82 3
78 4 -4 7 -21 6 -38 0 -16 4 -32 9 -35 5 -4 9 -24 9 -45 0 -21 4 -40 9 -42 5
-1 12 -52 16 -113 8 -136 -11 -124 -21 13 -4 51 -11 92 -17 92 -6 0 -7 -17 -4
-42 16 -113 19 -183 9 -173 -6 6 -12 21 -15 35 -3 17 -5 13 -6 -14 0 -22 -4
-36 -8 -32 -8 8 -9 10 -13 49 -2 16 -4 13 -9 -12 -7 -40 -30 -53 -38 -22 -3
12 -9 21 -14 21 -15 0 -10 -47 6 -60 8 -7 15 -8 15 -3 0 5 20 10 44 11 25 0
51 4 58 8 7 5 31 9 53 10 38 1 41 4 63 48 12 26 20 52 17 57 -11 17 -25 -1
-25 -32 0 -40 -20 -37 -22 4 l-1 32 -4 -35 -5 -35 -13 25 -14 25 -1 -33 c0
-19 -4 -31 -10 -27 -5 3 -9 23 -9 43 1 20 -2 68 -6 106 -6 51 -5 67 4 62 6 -4
11 -19 11 -34 0 -15 3 -45 7 -67 5 -29 8 -34 13 -20 3 10 3 34 -1 54 -4 20
-13 59 -18 86 -17 77 -25 203 -12 185 5 -8 13 -44 17 -80 7 -75 21 -110 34
-89 6 9 11 5 15 -14 4 -15 11 -27 16 -27 15 0 10 50 -6 56 -10 4 -15 22 -17
53 l-1 46 -6 -45 c-7 -55 -18 -35 -27 48 -3 32 -12 89 -20 128 -9 39 -14 89
-11 110 4 38 4 38 5 -8 1 -26 7 -50 12 -53 6 -3 10 -21 10 -38 1 -18 7 -54 14
-81 l13 -49 7 88 c3 48 4 90 1 93 -3 3 -5 -12 -5 -34 -1 -61 -17 -20 -29 72
-16 126 -31 207 -43 231 -6 12 -8 33 -4 47 3 13 2 28 -4 31 -5 3 -10 25 -9 48
0 36 2 39 9 19 6 -13 14 -51 19 -85 9 -58 10 -56 5 28 -7 113 13 107 22 -8 5
-58 10 -75 19 -67 6 5 15 7 18 3 4 -3 7 5 7 18 0 17 -3 20 -9 10 -12 -19 -24
4 -17 34 3 13 2 27 -4 30 -5 3 -10 22 -10 41 0 20 -4 44 -10 54 -12 23 -26
168 -14 157 4 -4 9 -20 11 -35 2 -15 7 -47 12 -72 11 -56 13 -24 5 58 -6 55
-9 61 -33 65 -14 3 -35 9 -45 13 -15 6 -18 4 -14 -7 3 -8 0 -23 -8 -34 -14
-18 -14 -18 -28 1 -11 14 -12 22 -3 32 8 11 7 16 -3 22 -8 5 -24 16 -35 25
-20 16 -20 16 1 10 12 -3 38 -8 59 -10z m-1515 -16 c-7 -11 -14 -19 -16 -16
-7 7 7 37 17 37 6 0 5 -9 -1 -21z m1270 -8 c0 -6 -4 -13 -10 -16 -5 -3 -10 1
-10 9 0 9 5 16 10 16 6 0 10 -4 10 -9z m-1270 -62 c0 -31 -15 -69 -28 -69 -4
0 -13 10 -20 21 -13 20 -12 21 13 15 27 -7 27 -6 21 29 -4 22 -3 35 4 35 5 0
10 -14 10 -31z m1137 -6 c-3 -10 -5 -4 -5 12 0 17 2 24 5 18 2 -7 2 -21 0 -30z
m43 20 c0 -10 -5 -25 -10 -33 -7 -11 -10 -7 -10 18 0 17 5 32 10 32 6 0 10 -8
10 -17z m306 -30 c21 -28 16 -39 -6 -15 -11 12 -20 24 -20 27 0 11 13 4 26
-12z m92 -7 c2 -10 0 -22 -6 -28 -6 -6 -11 1 -14 22 -5 32 14 38 20 6z m-28
-33 c0 -12 -4 -25 -10 -28 -6 -4 -10 11 -10 37 0 31 3 39 10 28 5 -8 10 -25
10 -37z m-423 -30 c-3 -10 -5 -2 -5 17 0 19 2 27 5 18 2 -10 2 -26 0 -35z m30
15 c-3 -7 -5 -2 -5 12 0 14 2 19 5 13 2 -7 2 -19 0 -25z m-1127 8 c6 -8 17
-13 24 -10 13 5 41 -44 31 -54 -3 -4 -8 4 -12 16 -6 23 -18 29 -28 12 -10 -17
-25 -11 -25 10 0 11 -4 20 -10 20 -5 0 -10 5 -10 10 0 15 16 12 30 -4z m1287
-18 c-3 -8 -6 -5 -6 6 -1 11 2 17 5 13 3 -3 4 -12 1 -19z m273 -30 c0 -31 -3
-39 -11 -31 -7 7 -8 24 -4 42 9 43 15 39 15 -11z m-140 6 c0 -8 -4 -14 -10
-14 -5 0 -10 9 -10 21 0 11 5 17 10 14 6 -3 10 -13 10 -21z m-364 -61 c-3 -3
-12 -3 -21 0 -13 6 -13 10 3 43 l17 37 3 -37 c2 -21 1 -40 -2 -43z m473 30 c0
-35 -1 -36 -10 -14 -5 14 -7 31 -5 38 10 24 16 13 15 -24z m-29 -10 c0 -27 -3
-34 -11 -26 -7 7 -9 23 -5 37 9 37 16 32 16 -11z m-1682 10 c-2 -10 -10 -17
-18 -15 -8 2 -31 -4 -52 -14 -35 -16 -37 -19 -23 -34 17 -18 21 -80 5 -80 -5
0 -10 13 -10 29 0 33 -16 50 -44 45 -24 -3 -42 -21 -32 -31 4 -4 12 0 17 9 16
28 49 11 49 -26 -1 -28 -2 -29 -14 -13 -11 14 -15 15 -20 5 -5 -11 -7 -11 -12
0 -5 10 -10 10 -25 -4 -10 -9 -19 -22 -19 -27 0 -19 32 -46 47 -40 11 5 13 -3
10 -37 -4 -44 16 -67 34 -39 10 16 10 20 14 -91 2 -41 6 -104 10 -140 5 -45 4
-62 -3 -55 -6 6 -12 21 -15 35 -2 14 -3 6 -2 -18 2 -37 1 -41 -12 -30 -11 9
-14 25 -10 58 6 59 -10 22 -18 -42 -6 -49 -25 -77 -25 -38 0 13 -8 24 -20 27
-14 4 -20 14 -20 34 0 18 5 28 13 27 6 -2 12 3 12 11 0 23 -34 21 -41 -2 -7
-21 -7 -21 -17 3 -10 24 -11 22 -17 -20 -6 -41 -7 -42 -8 -11 -2 26 -5 32 -13
24 -8 -8 -9 -37 -4 -90 3 -43 10 -141 14 -218 l7 -140 2 113 c3 144 22 152 23
10 1 -57 5 -114 10 -128 6 -16 7 12 5 80 -4 96 -3 102 9 70 10 -25 14 -29 15
-15 1 16 4 14 15 -10 10 -22 14 -25 15 -11 0 27 11 13 20 -26 6 -27 8 -19 10
42 l3 75 9 -60 c5 -33 13 -130 18 -215 5 -85 12 -196 16 -246 4 -60 3 -98 -5
-110 -8 -15 -10 3 -11 79 0 53 -4 97 -8 97 -5 0 -7 -39 -6 -87 2 -48 -1 -94
-6 -103 -7 -11 -9 -3 -10 28 0 30 -4 42 -15 42 -8 0 -15 6 -15 13 -1 6 -7 1
-15 -13 -14 -25 -14 -25 -16 15 l-2 40 -7 -35 c-5 -28 -8 -31 -14 -17 -5 9 -6
30 -3 45 3 15 0 36 -5 46 -6 11 -10 55 -9 97 1 45 -2 80 -9 84 -7 4 -10 -26
-10 -91 0 -54 -2 -95 -5 -92 -6 5 -9 60 -24 467 -12 289 -29 387 -33 180 l-2
-114 -3 98 c-3 61 -8 97 -15 97 -10 0 -9 -57 8 -457 5 -103 3 -143 -5 -143 -7
0 -11 42 -12 133 -3 257 -13 422 -26 419 -8 -1 -13 8 -13 20 0 19 -2 20 -10 8
-13 -20 -13 -163 0 -155 6 3 10 27 10 52 0 90 10 35 13 -68 2 -101 1 -104 -20
-107 -22 -3 -23 -7 -23 -100 0 -103 -16 -119 -23 -22 -3 49 -3 47 -5 -19 -2
-83 -13 -87 -23 -8 l-6 52 -2 -57 c0 -32 -5 -58 -10 -58 -5 0 -9 20 -9 45 1
33 -4 49 -17 59 -11 8 -15 18 -10 26 6 10 9 9 16 -1 5 -9 8 18 7 66 -2 76 -2
77 -5 18 -2 -35 -8 -63 -13 -63 -6 0 -10 6 -10 13 0 8 -9 24 -20 36 -16 20
-18 33 -13 89 3 37 10 75 14 84 5 9 8 43 8 75 l-2 58 -8 -60 c-5 -33 -12 -88
-15 -122 -6 -62 -24 -79 -24 -23 0 22 -4 28 -15 24 -19 -8 -19 -48 0 -68 10
-9 17 -40 20 -82 5 -78 14 -97 16 -33 l1 44 10 -54 c8 -45 7 -60 -6 -82 -9
-15 -16 -37 -16 -48 0 -24 -8 -26 -33 -7 -16 12 -16 15 -2 29 8 9 15 28 14 44
0 27 -1 27 -11 6 -19 -39 -23 -26 -21 59 2 56 0 76 -7 63 -9 -22 -9 -23 -14
63 -2 29 -6 56 -10 59 -6 6 -11 -67 -6 -97 1 -8 -2 -11 -7 -7 -4 5 -11 41 -14
80 -5 66 -6 62 -8 -43 -2 -146 -20 -130 -23 20 l-2 105 -6 -90 c-3 -49 -12
-102 -19 -117 -12 -23 -11 -31 14 -76 18 -33 25 -57 21 -69 -6 -14 -13 -6 -32
37 -14 30 -27 63 -31 73 -3 9 -9 17 -14 17 -10 0 -2 -44 13 -73 5 -10 7 -21 4
-24 -3 -3 -9 3 -13 13 -4 10 -17 30 -30 44 -12 13 -25 37 -28 52 -4 15 -10 28
-15 28 -5 0 -15 3 -24 6 -12 4 -16 0 -16 -15 0 -12 -4 -21 -10 -21 -5 0 -10
-7 -10 -15 0 -8 4 -15 9 -15 5 0 11 7 15 15 8 22 19 18 33 -12 10 -21 10 -28
0 -35 -7 -4 -14 -1 -18 9 -5 15 -7 15 -17 -2 -10 -18 -11 -18 -12 -2 0 11 -8
17 -25 17 -14 0 -25 5 -25 10 0 6 -4 10 -10 10 -5 0 -10 -8 -10 -19 0 -10 -7
-36 -17 -57 -9 -22 -17 -61 -19 -89 -1 -27 -5 -104 -8 -170 -3 -66 -6 -166 -6
-223 0 -79 -3 -103 -12 -99 -7 2 -13 19 -14 38 0 19 -4 53 -8 75 -6 32 -4 45
9 58 13 13 14 17 3 21 -29 11 -10 370 29 539 25 114 74 204 115 213 17 3 25
10 21 19 -5 14 53 74 72 74 6 0 16 -5 23 -12 9 -9 12 -6 12 16 0 23 3 26 20
21 15 -5 20 -2 20 13 0 24 44 65 72 67 13 1 23 7 23 13 0 6 9 19 20 29 32 29
183 133 194 133 5 0 20 9 33 20 21 19 85 60 157 100 15 9 38 26 52 39 57 55
196 94 187 54z m73 -26 c-16 -16 -26 0 -10 19 9 11 15 12 17 4 2 -6 -1 -17 -7
-23z m216 -19 c-3 -7 -5 -2 -5 12 0 14 2 19 5 13 2 -7 2 -19 0 -25z m1363 0
c0 -21 -3 -29 -10 -22 -5 5 -7 19 -4 32 9 31 14 27 14 -10z m-600 18 c0 -3 -4
-8 -10 -11 -5 -3 -10 -1 -10 4 0 6 5 11 10 11 6 0 10 -2 10 -4z m-720 -41 c0
-9 -6 -12 -15 -9 -8 4 -15 10 -15 15 0 5 7 9 15 9 8 0 15 -7 15 -15z m856 -52
c-4 -27 -11 -59 -16 -73 -4 -14 -11 -37 -14 -51 -4 -18 -14 -29 -31 -33 -14
-4 -25 -13 -25 -22 0 -8 -4 -13 -9 -9 -13 7 15 60 31 60 14 0 37 79 40 138 1
25 6 37 16 37 11 0 13 -10 8 -47z m371 0 c-3 -10 -5 -2 -5 17 0 19 2 27 5 18
2 -10 2 -26 0 -35z m163 -98 c14 -48 24 -163 11 -145 -6 8 -13 40 -17 70 -3
30 -10 60 -14 65 -4 6 -10 44 -13 85 l-6 75 14 -60 c9 -33 20 -73 25 -90z
m-1610 119 c0 -8 -4 -12 -10 -9 -5 3 -10 10 -10 16 0 5 5 9 10 9 6 0 10 -7 10
-16z m1420 -78 c-7 -7 -10 6 -9 40 l1 49 9 -39 c6 -26 6 -43 -1 -50z m-1580
34 c0 -22 -4 -40 -10 -40 -5 0 -10 18 -10 40 0 22 5 40 10 40 6 0 10 -18 10
-40z m470 -2 c0 -4 -6 -8 -14 -8 -8 0 -16 -8 -18 -17 -3 -10 -5 1 -5 25 0 41
0 42 18 26 11 -10 19 -21 19 -26z m1077 -10 c-2 -13 -4 -5 -4 17 -1 22 1 32 4
23 2 -10 2 -28 0 -40z m183 -58 c7 -52 16 -99 21 -105 5 -5 9 -23 9 -40 -1
-41 -15 -14 -25 45 -4 25 -13 70 -21 100 -16 63 -19 119 -5 105 6 -6 15 -53
21 -105z m-31 4 c5 -38 14 -82 20 -97 6 -16 10 -45 10 -65 -2 -34 -2 -35 -6
-7 -3 17 -9 34 -14 40 -5 5 -9 23 -9 41 0 24 -4 31 -17 30 -13 -1 -19 8 -21
29 -2 17 -8 34 -13 40 -15 16 -11 48 6 41 10 -4 15 1 15 16 0 47 20 0 29 -68z
m-1669 39 c0 -42 -9 -39 -16 6 -3 18 -1 31 5 31 6 0 11 -16 11 -37z m1457 -10
c-3 -10 -5 -4 -5 12 0 17 2 24 5 18 2 -7 2 -21 0 -30z m-1427 -19 c0 -8 -4
-14 -10 -14 -5 0 -10 9 -10 21 0 11 5 17 10 14 6 -3 10 -13 10 -21z m97 4 c-3
-8 -6 -5 -6 6 -1 11 2 17 5 13 3 -3 4 -12 1 -19z m1360 0 c-3 -8 -6 -5 -6 6
-1 11 2 17 5 13 3 -3 4 -12 1 -19z m-972 -29 c4 -10 14 -19 23 -19 26 0 70
-42 78 -72 6 -26 5 -27 -32 -21 -52 9 -124 93 -110 129 7 18 34 7 41 -17z
m-437 -24 c-11 -12 -38 8 -38 28 l0 21 22 -21 c12 -13 19 -25 16 -28z m1462
14 c0 -17 -4 -28 -10 -24 -5 3 -10 17 -10 31 0 13 5 24 10 24 6 0 10 -14 10
-31z m-31 -56 c0 -36 -3 -43 -9 -28 -12 28 -12 75 0 75 6 0 10 -21 9 -47z
m-1359 -4 c0 -10 -4 -19 -10 -19 -5 0 -10 12 -10 26 0 14 4 23 10 19 6 -3 10
-15 10 -26z m1447 9 c-3 -8 -6 -5 -6 6 -1 11 2 17 5 13 3 -3 4 -12 1 -19z m32
10 c-3 -28 2 -49 10 -43 5 3 12 1 15 -4 4 -5 2 -12 -4 -16 -5 -3 -10 -25 -11
-48 -1 -41 -1 -41 -14 18 -17 74 -18 105 -5 105 6 0 10 -6 9 -12z m-302 -40
c-3 -7 -5 -2 -5 12 0 14 2 19 5 13 2 -7 2 -19 0 -25z m-1160 -15 c-3 -10 -5
-4 -5 12 0 17 2 24 5 18 2 -7 2 -21 0 -30z m1396 17 c3 -11 1 -20 -4 -20 -5 0
-9 9 -9 20 0 11 2 20 4 20 2 0 6 -9 9 -20z m-1608 -32 c-3 -18 -1 -53 4 -78 8
-43 9 -42 10 33 1 61 4 77 16 77 12 0 14 -11 11 -57 -3 -32 -2 -47 1 -33 l5
24 14 -24 c14 -24 15 -22 10 25 -4 31 -2 42 3 30 8 -19 8 -19 15 3 4 12 12 22
17 22 12 0 11 -6 -3 -30 -9 -15 -10 -23 -2 -28 20 -13 34 -50 34 -89 -1 -36
-2 -37 -15 -19 -14 18 -15 16 -15 -29 0 -50 -14 -53 -23 -5 -2 14 -5 -1 -6
-33 -1 -73 -20 -67 -22 6 l-2 52 -6 -40 -7 -40 -11 35 c-11 34 -11 33 -13 -30
-2 -61 -2 -63 -12 -30 -5 19 -8 56 -5 83 2 26 0 47 -4 47 -5 0 -9 36 -9 80 0
49 4 80 10 80 7 0 9 -13 5 -32z m1125 28 c0 -2 -8 -10 -17 -17 -16 -13 -17
-12 -4 4 13 16 21 21 21 13z m-833 -52 c1 -18 0 -22 -4 -9 -3 11 -10 26 -17
34 -9 11 -8 13 4 9 8 -2 16 -18 17 -34z m177 0 c3 -8 10 -12 16 -9 5 3 10 -1
10 -9 0 -24 -16 -19 -34 9 -9 14 -12 25 -7 25 5 0 12 -7 15 -16z m1156 -1 c0
-24 -17 -49 -26 -40 -4 4 -1 18 6 32 16 30 20 31 20 8z m30 -20 c0 -21 -3 -24
-9 -14 -5 8 -7 20 -4 28 8 21 13 15 13 -14z m57 5 c-3 -8 -6 -5 -6 6 -1 11 2
17 5 13 3 -3 4 -12 1 -19z m-1450 -10 c-3 -8 -6 -5 -6 6 -1 11 2 17 5 13 3 -3
4 -12 1 -19z m2128 -20 c3 -24 9 -56 12 -73 4 -24 3 -28 -7 -18 -7 7 -14 27
-15 45 -1 18 -5 45 -9 61 -5 17 -4 27 2 27 6 0 13 -19 17 -42z m-2226 -30 c-1
-72 -13 -145 -21 -132 -10 15 3 184 13 184 5 0 9 -24 8 -52z m1398 -30 c-2
-18 -4 -6 -4 27 0 33 2 48 4 33 2 -15 2 -42 0 -60z m-1177 51 c0 -11 -4 -17
-10 -14 -5 3 -10 13 -10 21 0 8 5 14 10 14 6 0 10 -9 10 -21z m2040 -19 c0
-22 -3 -40 -8 -40 -4 0 -6 18 -4 40 2 22 6 40 8 40 2 0 4 -18 4 -40z m-2230
-53 c0 -40 -5 -79 -10 -87 -7 -10 -10 14 -10 78 0 60 4 91 10 87 6 -3 10 -39
10 -78z m220 61 c0 -16 -3 -19 -11 -11 -6 6 -8 16 -5 22 11 17 16 13 16 -11z
m1117 -85 c-2 -21 -4 -4 -4 37 0 41 2 58 4 38 2 -21 2 -55 0 -75z m257 65 c4
-24 3 -38 -4 -38 -5 0 -10 19 -10 42 0 49 5 47 14 -4z m-1565 -35 c-1 -106
-17 -124 -18 -20 -1 52 3 87 9 87 6 0 10 -29 9 -67z m564 38 c23 -15 64 -32
90 -37 l48 -9 -31 -42 c-17 -24 -29 -47 -26 -52 3 -5 -2 -23 -11 -41 -15 -32
-15 -130 1 -305 2 -22 11 -132 20 -245 9 -113 21 -264 27 -336 14 -167 8 -221
-9 -84 -7 58 -17 130 -23 160 -6 30 -15 116 -20 190 -5 74 -16 196 -24 270 -9
74 -15 177 -15 227 0 69 -5 106 -20 145 -26 68 -25 71 8 64 16 -4 1 8 -37 30
-107 62 -128 94 -60 94 28 0 53 -9 82 -29z m924 7 c-3 -8 -6 -5 -6 6 -1 11 2
17 5 13 3 -3 4 -12 1 -19z m-1436 -74 l-9 -59 0 75 c-1 52 2 70 8 59 6 -10 6
-40 1 -75z m166 64 c-3 -8 -6 -5 -6 6 -1 11 2 17 5 13 3 -3 4 -12 1 -19z
m1060 -45 c-2 -16 -4 -5 -4 22 0 28 2 40 4 28 2 -13 2 -35 0 -50z m113 46 c0
-5 -4 -9 -10 -9 -5 0 -10 7 -10 16 0 8 5 12 10 9 6 -3 10 -10 10 -16z m-263
-51 c-2 -13 -4 -3 -4 22 0 25 2 35 4 23 2 -13 2 -33 0 -45z m400 10 c-2 -13
-4 -5 -4 17 -1 22 1 32 4 23 2 -10 2 -28 0 -40z m-90 20 c-3 -8 -6 -5 -6 6 -1
11 2 17 5 13 3 -3 4 -12 1 -19z m1128 11 c4 -6 13 -8 21 -5 14 5 18 -5 15 -33
-2 -7 1 -20 5 -30 13 -29 13 -42 -1 -74 -11 -27 -15 -29 -20 -14 -4 9 -2 24 5
31 8 11 8 20 1 35 -6 11 -11 29 -11 40 0 12 -9 30 -20 41 -11 11 -16 20 -11
20 6 0 13 -5 16 -11z m-2536 -61 c1 -15 -3 -30 -9 -33 -6 -4 -10 14 -9 47 0
39 3 48 9 33 5 -11 9 -32 9 -47z m2108 15 c-3 -10 -5 -2 -5 17 0 19 2 27 5 18
2 -10 2 -26 0 -35z m-1880 -5 c-3 -8 -6 -5 -6 6 -1 11 2 17 5 13 3 -3 4 -12 1
-19z m1263 -76 c0 -50 -12 -50 -16 1 -2 17 -6 48 -9 67 l-7 35 16 -29 c9 -15
16 -49 16 -74z m-153 -4 c-2 -18 -4 -4 -4 32 0 36 2 50 4 33 2 -18 2 -48 0
-65z m213 50 c-1 -34 -3 -39 -11 -26 -8 15 -3 68 7 68 2 0 4 -19 4 -42z m666
-32 c3 -29 1 -46 -5 -46 -6 0 -11 18 -11 39 0 22 -3 48 -6 58 -5 14 -4 15 5 7
7 -6 14 -32 17 -58z m-2647 -10 c-9 -8 -10 -5 -5 14 3 14 6 32 7 40 1 8 4 2 6
-14 3 -16 -1 -34 -8 -40z m2601 38 c0 -8 -4 -14 -10 -14 -5 0 -10 9 -10 21 0
11 5 17 10 14 6 -3 10 -13 10 -21z m-940 -30 c0 -21 -4 -33 -10 -29 -5 3 -10
22 -10 41 0 21 4 33 10 29 6 -3 10 -22 10 -41z m137 14 c-3 -7 -5 -2 -5 12 0
14 2 19 5 13 2 -7 2 -19 0 -25z m153 -9 c0 -22 5 -49 10 -59 13 -24 26 -178
14 -167 -4 4 -14 47 -22 95 -23 149 -25 172 -13 172 6 0 11 -18 11 -41z m-745
-214 c9 -88 17 -182 20 -210 2 -27 8 -93 14 -145 5 -52 12 -138 14 -192 3 -53
8 -101 11 -107 4 -6 5 -15 2 -20 -3 -4 -1 -35 4 -67 10 -63 15 -118 26 -308 5
-89 4 -117 -4 -112 -7 4 -12 27 -12 52 0 32 -3 43 -12 38 -8 -5 -9 5 -5 39 4
29 2 49 -4 53 -6 3 -9 15 -6 25 3 10 1 22 -4 25 -5 3 -9 31 -9 62 0 59 -12 93
-24 73 -4 -6 -4 -20 -1 -32 10 -31 13 -167 4 -181 -5 -7 -9 21 -9 65 0 53 -3
76 -11 72 -6 -4 -8 -13 -5 -21 3 -8 1 -14 -4 -14 -6 0 -10 10 -10 22 0 18 -3
19 -12 10 -9 -9 -14 -49 -15 -115 -2 -125 -1 -122 -10 -113 -4 4 -13 64 -19
134 -7 70 -17 181 -23 247 -37 406 -63 859 -48 845 5 -5 8 -40 26 -265 6 -68
8 -77 9 -37 1 28 7 52 12 52 14 0 13 -127 -1 -136 -8 -5 -10 -32 -4 -93 4 -47
11 -138 15 -201 5 -63 10 -128 13 -145 2 -16 8 -55 12 -86 6 -49 10 -56 26
-52 20 6 35 43 26 65 -3 7 -6 2 -7 -12 -1 -23 -2 -23 -10 -5 -12 28 -12 85 0
85 6 0 10 -12 10 -26 0 -30 19 -22 21 9 1 14 4 9 9 -13 4 -21 8 -27 9 -15 1
11 4 33 6 48 4 26 2 27 -28 22 -18 -3 -37 -2 -43 2 -22 16 -33 81 -40 236 -6
143 -5 157 10 157 10 0 15 4 12 9 -4 5 -2 20 3 33 8 20 10 17 10 -21 1 -24 4
-42 7 -39 13 13 17 71 18 233 1 203 8 343 13 275 2 -25 10 -117 18 -205z
m1219 96 c-9 -9 -14 -11 -11 -5 3 5 7 39 8 75 3 89 13 98 17 15 2 -55 -1 -73
-14 -85z m-957 117 c-3 -8 -6 -5 -6 6 -1 11 2 17 5 13 3 -3 4 -12 1 -19z
m1092 15 c0 -5 -4 -17 -9 -28 -8 -18 -9 -17 -9 8 -1 15 4 27 9 27 6 0 10 -3 9
-7z m-1429 -13 c0 -6 9 -24 21 -39 24 -33 20 -59 -13 -80 -19 -12 -24 -11 -40
9 -23 28 -23 54 -1 91 17 29 33 38 33 19z m447 -92 c-2 -18 -4 -4 -4 32 0 36
2 50 4 33 2 -18 2 -48 0 -65z m1041 81 c-2 -6 -8 -11 -13 -11 -6 0 -17 -5 -25
-11 -8 -6 -6 -2 4 11 20 23 40 30 34 11z m-2398 -24 c0 -14 -4 -25 -10 -25
-11 0 -14 33 -3 43 11 11 13 8 13 -18z m1389 -32 c0 -34 -3 -50 -7 -40 -7 17
-4 97 4 97 2 0 4 -26 3 -57z m88 10 c-3 -10 -5 -2 -5 17 0 19 2 27 5 18 2 -10
2 -26 0 -35z m-1568 -11 c0 -24 -1 -25 -9 -7 -12 28 -12 47 0 40 6 -3 10 -18
9 -33z m28 -9 c-3 -10 -5 -4 -5 12 0 17 2 24 5 18 2 -7 2 -21 0 -30z m2463 1
c0 -14 6 -40 14 -58 8 -20 10 -39 5 -47 -10 -17 -12 -14 -27 44 -15 58 -16
100 -2 92 6 -3 10 -17 10 -31z m-2600 6 c0 -4 -6 -13 -14 -19 -11 -9 -15 -9
-19 1 -7 20 3 37 19 31 8 -3 14 -9 14 -13z m667 -17 c-3 -10 -5 -4 -5 12 0 17
2 24 5 18 2 -7 2 -21 0 -30z m860 -65 c-2 -18 -4 -4 -4 32 0 36 2 50 4 33 2
-18 2 -48 0 -65z m1242 48 c-2 -2 -13 8 -23 22 l-19 27 24 -22 c12 -12 21 -24
18 -27z m255 -1 c-9 -23 -23 1 -16 27 4 17 6 18 13 5 5 -8 6 -23 3 -32z
m-2974 13 c0 -19 -2 -20 -10 -8 -13 19 -13 30 0 30 6 0 10 -10 10 -22z m1328
-49 l-3 -54 -5 62 c-3 34 -1 58 3 54 5 -4 7 -32 5 -62z m119 -6 c-2 -16 -4 -3
-4 27 0 30 2 43 4 28 2 -16 2 -40 0 -55z m122 40 c-1 -33 -2 -35 -8 -13 -4 14
-6 31 -3 38 8 22 12 13 11 -25z m27 -41 c-13 -12 -18 9 -10 45 l8 38 4 -39 c2
-21 1 -41 -2 -44z m804 68 c0 -5 -4 -10 -10 -10 -5 0 -10 5 -10 10 0 6 5 10
10 10 6 0 10 -4 10 -10z m187 -37 c-3 -10 -5 -2 -5 17 0 19 2 27 5 18 2 -10 2
-26 0 -35z m-2000 -10 c-3 -10 -5 -2 -5 17 0 19 2 27 5 18 2 -10 2 -26 0 -35z
m670 25 c-3 -8 -6 -5 -6 6 -1 11 2 17 5 13 3 -3 4 -12 1 -19z m-950 -35 c-3
-10 -5 -2 -5 17 0 19 2 27 5 18 2 -10 2 -26 0 -35z m264 -39 c5 -6 8 -58 8
-115 -1 -147 -15 -101 -21 66 -3 77 -3 122 -1 100 3 -22 9 -45 14 -51z m846 4
c-2 -18 -4 -6 -4 27 0 33 2 48 4 33 2 -15 2 -42 0 -60z m-1388 35 c0 -33 -1
-35 -9 -15 -8 20 -4 52 6 52 2 0 4 -17 3 -37z m778 -55 c-2 -18 -4 -4 -4 32 0
36 2 50 4 33 2 -18 2 -48 0 -65z m30 55 c-3 -10 -5 -4 -5 12 0 17 2 24 5 18 2
-7 2 -21 0 -30z m853 10 c0 -20 -3 -24 -11 -16 -7 7 -9 19 -6 27 10 24 17 19
17 -11z m21 -36 c-8 -8 -11 -2 -11 19 0 40 14 54 18 19 2 -15 -1 -32 -7 -38z
m-1554 1 c-2 -13 -4 -5 -4 17 -1 22 1 32 4 23 2 -10 2 -28 0 -40z m1140 -10
c-2 -13 -4 -3 -4 22 0 25 2 35 4 23 2 -13 2 -33 0 -45z m1652 17 c6 -3 11 -14
11 -23 0 -12 -3 -13 -12 -4 -9 9 -15 7 -25 -6 -13 -15 -14 -13 -9 17 3 18 6
41 7 50 0 11 3 10 9 -5 5 -12 13 -25 19 -29z m-2442 -45 c4 -9 10 3 14 30 5
31 6 23 3 -29 -2 -41 -4 -119 -4 -175 0 -72 -3 -97 -11 -89 -7 7 -10 52 -7
127 1 64 0 116 -4 116 -5 0 -7 24 -6 53 1 38 2 43 5 17 2 -19 7 -42 10 -50z
m270 -27 c-2 -21 -4 -4 -4 37 0 41 2 58 4 38 2 -21 2 -55 0 -75z m490 25 c-2
-18 -4 -6 -4 27 0 33 2 48 4 33 2 -15 2 -42 0 -60z m106 -33 c-16 -12 -16 -18
-5 -60 8 -31 9 -52 2 -63 -7 -13 -9 -7 -10 25 0 23 -5 43 -11 45 -7 2 -8 20
-3 53 4 28 10 42 12 33 8 -37 22 -16 24 35 l2 52 3 -53 c3 -43 0 -57 -14 -67z
m287 69 c0 -27 -4 -43 -10 -39 -5 3 -10 24 -10 46 0 21 5 39 10 39 6 0 10 -21
10 -46z m957 9 c-3 -10 -5 -4 -5 12 0 17 2 24 5 18 2 -7 2 -21 0 -30z m-2490
-10 c-3 -10 -5 -4 -5 12 0 17 2 24 5 18 2 -7 2 -21 0 -30z m150 15 c-3 -8 -6
-5 -6 6 -1 11 2 17 5 13 3 -3 4 -12 1 -19z m2532 -48 c0 -9 -4 -6 -9 6 -5 12
-13 25 -19 29 -6 3 -11 14 -11 23 0 12 6 7 20 -13 11 -16 20 -37 19 -45z
m-2712 -7 c-2 -16 -4 -5 -4 22 0 28 2 40 4 28 2 -13 2 -35 0 -50z m255 -1
c-10 -37 -10 -37 -11 18 0 43 2 51 10 37 7 -12 8 -30 1 -55z m25 21 c-3 -10
-5 -2 -5 17 0 19 2 27 5 18 2 -10 2 -26 0 -35z m1163 32 c6 4 10 -5 9 -22 -1
-18 -3 -22 -6 -10 -3 10 -11 16 -18 13 -7 -2 -15 4 -18 15 -4 16 -3 18 8 9 8
-7 19 -9 25 -5z m811 -68 c1 -43 -1 -80 -5 -84 -3 -3 -6 33 -6 82 0 108 8 109
11 2z m326 61 c-3 -8 -6 -5 -6 6 -1 11 2 17 5 13 3 -3 4 -12 1 -19z m-2730
-10 c-3 -8 -6 -5 -6 6 -1 11 2 17 5 13 3 -3 4 -12 1 -19z m319 -139 c4 -78 2
-119 -5 -124 -8 -4 -11 28 -11 102 0 59 -3 126 -5 148 -5 35 -4 37 5 15 7 -14
14 -77 16 -141z m814 136 c0 -14 -2 -25 -4 -25 -2 0 -6 11 -8 25 -3 14 -1 25
3 25 5 0 9 -11 9 -25z m1387 3 c-3 -8 -6 -5 -6 6 -1 11 2 17 5 13 3 -3 4 -12
1 -19z m-2400 -65 c-2 -16 -4 -3 -4 27 0 30 2 43 4 28 2 -16 2 -40 0 -55z
m269 -137 c7 -174 15 -221 19 -109 6 159 9 167 16 53 13 -207 22 -290 30 -290
5 0 9 6 9 14 0 8 4 16 10 18 10 3 16 165 6 175 -3 3 -6 -23 -6 -58 0 -35 -5
-71 -10 -79 -7 -11 -10 3 -10 45 0 33 -4 97 -10 141 -5 47 -5 94 0 110 7 26 8
24 10 -21 l2 -50 11 35 11 35 6 -55 6 -55 6 45 c3 25 6 56 6 70 0 14 4 63 9
110 l8 85 7 -70 c5 -38 13 -144 18 -235 12 -198 27 -260 31 -125 l2 90 8 -70
c7 -66 27 -273 33 -358 6 -76 16 -48 16 44 0 52 -4 99 -9 105 -5 5 -13 80 -17
167 -4 87 -10 160 -14 162 -5 3 -9 50 -9 106 -1 66 2 98 9 94 5 -3 10 -43 11
-88 0 -45 5 -122 10 -172 6 -49 13 -130 18 -180 l7 -90 2 83 c2 97 22 114 22
18 0 -89 9 -127 29 -124 13 3 15 -7 12 -67 -3 -85 16 -80 22 5 3 51 3 50 5
-17 2 -79 -13 -138 -28 -113 -7 10 -10 -3 -10 -42 0 -32 -4 -58 -9 -58 -5 0
-12 65 -16 145 -4 81 -12 148 -18 152 -7 4 -8 -19 -4 -70 19 -214 19 -232 9
-222 -6 6 -12 26 -15 45 -2 20 -5 6 -6 -35 -3 -103 -19 -52 -32 104 -5 69 -13
160 -18 201 l-8 75 -1 -87 c-1 -49 -6 -88 -10 -88 -5 0 -14 75 -20 168 -7 92
-16 199 -20 237 l-9 70 -1 -77 c-1 -42 -6 -80 -12 -83 -12 -7 -12 -72 0 -100
7 -17 9 -14 10 15 3 72 18 -15 30 -182 16 -215 27 -276 29 -154 1 106 10 108
17 5 3 -41 8 -103 10 -139 6 -72 -12 -76 -19 -5 -3 29 -4 23 -5 -23 -2 -71
-22 -78 -22 -9 0 23 -5 49 -11 57 -7 11 -8 -8 -3 -64 5 -57 4 -77 -5 -72 -6 4
-11 22 -11 39 0 55 -10 78 -33 75 -11 -2 -22 3 -24 10 -3 6 0 12 6 12 7 0 10
27 9 78 -1 54 -3 63 -5 29 -7 -80 -19 -52 -31 71 -13 135 -11 117 -18 250 -3
56 -9 102 -12 102 -4 0 -6 -35 -4 -77 2 -43 -1 -89 -6 -102 -9 -24 -13 23 -27
294 -13 246 -14 289 -6 269 5 -12 13 -101 17 -198z m-102 153 c-8 -14 -24 8
-24 36 0 18 1 18 16 -3 8 -12 12 -27 8 -33z m1373 -71 c-2 -24 -4 -5 -4 42 0
47 2 66 4 43 2 -24 2 -62 0 -85z m714 38 c1 -43 -2 -80 -5 -83 -3 -4 -6 33 -6
82 0 49 2 86 5 83 3 -3 6 -40 6 -82z m-1711 -2 c0 -41 -4 -63 -10 -59 -5 3
-10 35 -10 71 0 41 4 63 10 59 6 -3 10 -35 10 -71z m141 3 c1 -37 -1 -70 -4
-74 -4 -3 -7 29 -7 72 0 95 7 96 11 2z m296 -4 c-2 -16 -4 -3 -4 27 0 30 2 43
4 28 2 -16 2 -40 0 -55z m190 15 c-2 -13 -4 -3 -4 22 0 25 2 35 4 23 2 -13 2
-33 0 -45z m1366 30 c-8 -46 -13 -48 -13 -5 0 21 4 37 10 37 5 0 7 -14 3 -32z
m-2304 -63 c0 -40 -4 -77 -9 -80 -6 -4 -10 26 -10 80 0 49 4 84 9 81 5 -4 9
-40 10 -81z m908 63 c-3 -8 -6 -5 -6 6 -1 11 2 17 5 13 3 -3 4 -12 1 -19z
m280 -60 c-2 -18 -4 -6 -4 27 0 33 2 48 4 33 2 -15 2 -42 0 -60z m30 35 c-3
-10 -5 -2 -5 17 0 19 2 27 5 18 2 -10 2 -26 0 -35z m1024 -38 c-4 -17 -6 -15
-12 10 -4 17 -7 41 -7 55 -1 21 1 19 12 -10 6 -19 10 -44 7 -55z m-2341 -98
c18 -5 20 0 20 53 0 33 5 62 11 65 10 7 9 -57 -6 -285 -4 -60 -3 -81 4 -70 6
8 11 35 12 60 l2 45 6 -55 7 -55 8 70 c11 100 14 101 16 5 2 -77 3 -81 11 -40
4 25 9 68 10 95 3 55 7 15 28 -255 12 -154 18 -225 27 -293 3 -26 2 -55 -2
-65 -8 -17 -20 60 -29 198 -3 36 -9 108 -13 160 l-8 95 -2 -80 c-3 -111 -22
-136 -22 -29 0 64 -4 85 -17 95 -15 13 -15 12 -6 -6 6 -11 11 -65 12 -119 1
-54 4 -102 6 -106 2 -4 5 -41 6 -83 1 -43 6 -77 11 -77 9 0 4 -57 -5 -67 -7
-6 -22 145 -18 183 1 18 -2 35 -8 39 -6 3 -11 40 -11 87 0 68 -2 79 -14 69
-11 -9 -15 -9 -19 1 -3 7 -5 -18 -5 -57 l1 -70 7 55 c4 38 8 50 14 38 4 -10 5
-42 2 -73 -3 -30 -9 -80 -12 -110 -5 -46 -3 -55 10 -55 11 0 16 -9 16 -27 l-1
-28 -13 24 c-10 18 -15 20 -19 10 -3 -8 -6 14 -6 49 -1 39 -5 61 -11 57 -5 -3
-11 -18 -11 -33 -1 -15 -5 -6 -10 23 -4 29 -4 52 1 55 10 6 16 177 6 187 -3 4
-6 -33 -6 -82 0 -106 -12 -104 -21 2 -5 61 -3 80 10 95 8 10 21 18 28 18 9 0
13 18 13 61 0 71 -19 72 -22 1 0 -26 -5 12 -9 83 -4 72 -10 168 -12 215 -3 46
-2 89 1 95 4 5 8 -29 10 -76 2 -77 5 -87 22 -92z m457 141 c-3 -7 -5 -2 -5 12
0 14 2 19 5 13 2 -7 2 -19 0 -25z m2153 -20 c0 -6 -9 1 -20 15 -11 14 -20 29
-20 34 1 11 40 -37 40 -49z m-2610 -102 c-7 -7 -10 11 -10 60 0 92 14 106 18
18 2 -38 -2 -72 -8 -78z m529 2 c1 -27 -3 -48 -9 -48 -6 0 -9 38 -9 98 2 85 3
91 9 47 5 -27 9 -71 9 -97z m1656 92 c0 -27 -3 -50 -7 -50 -5 0 -8 23 -8 50 0
28 3 50 8 50 4 0 7 -22 7 -50z m-2231 -67 c9 -201 11 -333 4 -333 -5 0 -8 45
-8 99 0 56 -4 103 -10 106 -6 4 -10 -45 -10 -139 0 -86 4 -147 10 -151 6 -3
10 -41 10 -83 0 -49 -3 -73 -10 -66 -8 8 -14 92 -35 511 -4 72 -2 114 5 118 7
4 10 -25 10 -86 0 -51 2 -90 5 -87 3 2 6 53 6 111 1 59 5 107 9 107 5 0 11
-48 14 -107z m863 85 c-3 -8 -6 -5 -6 6 -1 11 2 17 5 13 3 -3 4 -12 1 -19z
m440 0 c-3 -8 -6 -5 -6 6 -1 11 2 17 5 13 3 -3 4 -12 1 -19z m219 -15 c1 -21
5 -69 9 -108 5 -50 4 -67 -3 -60 -14 13 -28 205 -16 205 5 0 10 -17 10 -37z
m748 22 c6 -17 -2 -45 -14 -45 -4 0 -7 14 -8 30 -1 32 12 40 22 15z m526 -27
c0 -9 -4 -20 -10 -23 -6 -4 -10 9 -10 32 0 28 3 34 10 23 5 -8 10 -23 10 -32z
m-2550 -14 c0 -21 -4 -33 -10 -29 -5 3 -10 22 -10 41 0 21 4 33 10 29 6 -3 10
-22 10 -41z m34 -18 c-9 -59 -21 -44 -16 19 3 28 8 43 13 38 5 -5 6 -31 3 -57z
m206 30 c0 -19 -4 -38 -10 -41 -6 -4 -10 10 -10 34 0 23 5 41 10 41 6 0 10
-15 10 -34z m537 -18 c-2 -13 -4 -5 -4 17 -1 22 1 32 4 23 2 -10 2 -28 0 -40z
m-1677 21 c0 -6 -4 -7 -10 -4 -5 3 -10 11 -10 16 0 6 5 7 10 4 6 -3 10 -11 10
-16z m1707 -16 c-3 -10 -5 -4 -5 12 0 17 2 24 5 18 2 -7 2 -21 0 -30z m203
-33 c0 -32 -4 -62 -10 -65 -6 -4 -10 20 -10 65 0 45 4 69 10 65 6 -3 10 -33
10 -65z m24 -22 c-3 -14 0 -29 5 -33 6 -3 11 -24 11 -45 0 -22 5 -62 11 -90 7
-34 7 -59 1 -78 -10 -24 -10 -22 -11 23 -1 28 -5 65 -11 84 -5 18 -12 79 -14
135 -4 74 -3 92 4 66 5 -19 7 -47 4 -62z m1463 60 c-3 -7 -5 -2 -5 12 0 14 2
19 5 13 2 -7 2 -19 0 -25z m-3020 -201 c7 -117 15 -237 19 -267 3 -34 2 -51
-4 -45 -25 27 -59 556 -34 531 4 -4 12 -103 19 -219z m2906 203 c3 -11 2 -20
-3 -20 -4 0 -10 9 -13 20 -3 11 -2 20 3 20 4 0 10 -9 13 -20z m-3004 -22 c-1
-7 -5 -24 -9 -38 -7 -22 -8 -21 -9 13 -1 20 4 37 9 37 6 0 10 -6 9 -12z m1681
-42 c-7 -7 -10 1 -9 25 0 32 1 33 10 10 6 -16 6 -28 -1 -35z m-174 7 c-11 -11
-17 4 -9 23 7 18 8 18 11 1 2 -10 1 -21 -2 -24z m34 12 c0 -14 -4 -25 -10 -25
-11 0 -14 33 -3 43 11 11 13 8 13 -18z m263 -6 c5 -4 6 -17 2 -29 -7 -22 -8
-22 -21 9 -8 18 -11 38 -7 44 4 7 8 6 11 -3 3 -8 9 -18 15 -21z m847 6 c0 -8
-4 -17 -10 -20 -6 -4 -10 5 -10 20 0 15 4 24 10 20 6 -3 10 -12 10 -20z m77
-7 c-3 -7 -5 -2 -5 12 0 14 2 19 5 13 2 -7 2 -19 0 -25z m-2398 -373 c6 -71
10 -150 10 -175 0 -41 -1 -43 -11 -20 -5 14 -12 94 -15 178 -3 83 -10 152 -14
152 -11 0 -12 244 -1 254 4 4 10 -52 14 -126 3 -73 11 -191 17 -263z m691 298
c0 -103 -9 -119 -17 -31 -9 101 -7 128 7 128 6 0 10 -39 10 -97z m29 20 l-2
-78 -10 52 c-9 46 -4 103 8 103 3 0 4 -35 4 -77z m1945 51 c4 -15 5 -29 1 -32
-3 -3 -5 2 -5 11 0 10 -4 17 -10 17 -5 0 -10 7 -10 15 0 25 17 17 24 -11z
m-1702 -26 l1 -43 6 45 c3 25 9 38 12 30 3 -8 3 -37 0 -64 -6 -47 -7 -49 -23
-32 -12 11 -18 33 -18 62 0 56 20 58 22 2z m188 -9 c0 -32 -4 -48 -10 -44 -6
4 -9 25 -6 48 5 50 5 47 11 47 3 0 5 -23 5 -51z m90 7 c0 -25 -4 -48 -10 -51
-6 -4 -9 14 -9 45 2 62 19 67 19 6z m-1840 -6 c0 -40 -13 -53 -24 -24 -7 19 3
64 15 64 5 0 9 -18 9 -40z m1185 12 c1 -9 5 -38 10 -65 5 -32 3 -52 -5 -61 -8
-11 -8 -20 -1 -35 11 -20 16 -119 5 -109 -3 3 -9 28 -14 55 -8 48 -8 47 -9
-24 0 -41 -5 -73 -11 -73 -5 0 -10 -7 -10 -16 0 -8 -4 -12 -10 -9 -6 3 -10 -4
-10 -16 0 -15 -3 -20 -10 -13 -5 5 -12 79 -15 164 -3 92 -2 147 3 135 5 -11 7
-38 4 -61 -2 -25 0 -44 7 -48 8 -5 11 12 11 56 1 48 3 59 11 45 17 -29 29 -9
29 50 0 51 11 69 15 25z m535 -28 c0 -34 -4 -53 -10 -49 -18 11 -12 105 7 105
2 0 3 -25 3 -56z m-1982 0 c3 -18 2 -18 -11 -2 -8 10 -16 15 -19 12 -3 -2 -8
5 -11 16 -5 20 -4 20 16 7 12 -8 23 -23 25 -33z m1357 36 c3 -5 1 -10 -4 -10
-6 0 -11 5 -11 10 0 6 2 10 4 10 3 0 8 -4 11 -10z m2322 -22 c-3 -8 -6 -5 -6
6 -1 11 2 17 5 13 3 -3 4 -12 1 -19z m-3597 3 c0 -5 -8 -17 -17 -27 -20 -20
-32 -1 -13 21 14 17 30 20 30 6z m330 -51 c0 -33 -4 -60 -10 -60 -11 0 -14
103 -3 113 12 12 13 8 13 -53z m2580 39 c0 -5 -4 -9 -10 -9 -5 0 -10 7 -10 16
0 8 5 12 10 9 6 -3 10 -10 10 -16z m-1474 -37 c5 -25 3 -32 -10 -32 -13 0 -16
-14 -17 -82 l-2 -83 -9 80 c-13 116 19 215 38 117z m-1416 33 c0 -13 -31 -65
-39 -65 -10 0 21 69 32 70 4 0 7 -2 7 -5z m2990 -5 c0 -5 -2 -10 -4 -10 -3 0
-8 5 -11 10 -3 6 -1 10 4 10 6 0 11 -4 11 -10z m104 -68 c3 -41 2 -71 -2 -68
-11 7 -23 112 -15 132 8 22 10 16 17 -64z m273 56 c-3 -8 -6 -5 -6 6 -1 11 2
17 5 13 3 -3 4 -12 1 -19z m310 -15 c-3 -10 -5 -4 -5 12 0 17 2 24 5 18 2 -7
2 -21 0 -30z m-3247 -80 c0 -58 -2 -104 -5 -102 -10 11 -16 209 -5 209 6 0 10
-39 10 -107z m1517 15 c-2 -18 -4 -4 -4 32 0 36 2 50 4 33 2 -18 2 -48 0 -65z
m180 25 c-2 -16 -4 -5 -4 22 0 28 2 40 4 28 2 -13 2 -35 0 -50z m-1667 -35 c0
-51 2 -111 5 -133 l5 -40 -14 30 c-18 35 -22 235 -6 235 6 0 10 -38 10 -92z
m-390 37 c0 -17 -2 -17 -14 5 -7 14 -11 29 -8 34 6 12 22 -15 22 -39z m880 35
c0 -5 -4 -10 -10 -10 -5 0 -10 5 -10 10 0 6 5 10 10 10 6 0 10 -4 10 -10z
m1330 -30 c0 -22 -4 -40 -10 -40 -5 0 -10 18 -10 40 0 22 5 40 10 40 6 0 10
-18 10 -40z m880 -35 c1 -5 1 -17 0 -25 -3 -25 -18 32 -18 70 l0 35 8 -35 c4
-19 8 -39 10 -45z m-3275 55 c-4 -6 -2 -17 5 -25 6 -8 7 -16 2 -19 -6 -3 -12
4 -15 16 -6 21 -1 38 9 38 3 0 2 -5 -1 -10z m119 -22 c-6 -29 -5 -31 10 -19
14 11 16 11 16 -2 0 -24 -25 -27 -40 -4 -9 15 -10 22 -1 25 6 2 11 10 11 18 0
8 3 14 6 14 3 0 2 -15 -2 -32z m2082 -131 c4 -30 2 -53 -5 -60 -8 -8 -11 5
-11 49 0 33 -4 64 -8 70 -5 5 -6 32 -3 59 l5 50 8 -60 c5 -33 11 -82 14 -108z
m-1946 118 c0 -5 -5 -3 -10 5 -5 8 -10 20 -10 25 0 6 5 3 10 -5 5 -8 10 -19
10 -25z m137 -17 c-2 -13 -4 -5 -4 17 -1 22 1 32 4 23 2 -10 2 -28 0 -40z
m1652 -83 c5 -5 11 -75 14 -155 4 -104 3 -127 -3 -80 -18 132 -29 266 -28 320
l2 55 3 -65 c2 -35 8 -69 12 -75z m-692 -8 c-2 -23 -3 -1 -3 48 0 50 1 68 3
42 2 -26 2 -67 0 -90z m800 51 c-2 -18 -4 -6 -4 27 0 33 2 48 4 33 2 -15 2
-42 0 -60z m-1847 46 c0 -8 -4 -12 -10 -9 -5 3 -10 13 -10 21 0 8 5 12 10 9 6
-3 10 -13 10 -21z m1697 -66 c-2 -18 -4 -4 -4 32 0 36 2 50 4 33 2 -18 2 -48
0 -65z m1230 60 c-3 -7 -5 -2 -5 12 0 14 2 19 5 13 2 -7 2 -19 0 -25z m-2735
-25 c-10 -28 -10 -28 -11 12 -1 28 2 36 10 28 8 -8 8 -19 1 -40z m1037 -10
l-1 -58 -9 49 c-7 45 -5 66 7 66 2 0 3 -26 3 -57z m558 0 c-3 -10 -5 -2 -5 17
0 19 2 27 5 18 2 -10 2 -26 0 -35z m-2060 15 c-3 -8 -6 -5 -6 6 -1 11 2 17 5
13 3 -3 4 -12 1 -19z m317 7 c-4 -8 -12 -15 -20 -15 -17 0 -18 17 -1 23 22 9
27 7 21 -8z m1778 -72 c-3 -13 -11 -23 -19 -23 -12 0 -14 7 -9 28 4 15 10 41
14 57 l6 30 6 -35 c3 -19 4 -45 2 -57z m238 77 c0 -5 -4 -10 -10 -10 -5 0 -10
5 -10 10 0 6 5 10 10 10 6 0 10 -4 10 -10z m-2209 -27 c-8 -15 -10 -15 -11 -2
0 17 10 32 18 25 2 -3 -1 -13 -7 -23z m2101 -3 c3 -16 1 -35 -4 -42 -4 -8 -8
4 -8 30 0 49 6 55 12 12z m-1795 -12 c-3 -7 -5 -2 -5 12 0 14 2 19 5 13 2 -7
2 -19 0 -25z m-237 12 c0 -5 -4 -10 -10 -10 -5 0 -10 5 -10 10 0 6 5 10 10 10
6 0 10 -4 10 -10z m156 -6 c-3 -9 -6 -20 -6 -25 0 -4 -7 -6 -16 -2 -12 4 -14
0 -8 -22 5 -21 4 -27 -7 -23 -8 3 -14 10 -13 16 1 7 2 21 3 32 0 11 8 20 16
20 8 0 15 5 15 10 0 6 5 10 11 10 6 0 8 -7 5 -16z m21 -31 c-3 -10 -5 -2 -5
17 0 19 2 27 5 18 2 -10 2 -26 0 -35z m1570 0 c-3 -10 -5 -2 -5 17 0 19 2 27
5 18 2 -10 2 -26 0 -35z m-1667 -2 c0 -11 -4 -9 -14 4 -8 11 -12 24 -9 28 7
11 23 -12 23 -32z m2950 3 c0 -13 -4 -24 -10 -24 -5 0 -10 14 -10 31 0 17 4
28 10 24 6 -3 10 -17 10 -31z m-1628 -29 l4 60 2 -62 c2 -66 22 -90 22 -26 0
20 3 34 6 30 4 -3 3 -36 -1 -72 -5 -51 -10 -65 -21 -61 -10 4 -14 -3 -14 -26
0 -23 -3 -29 -11 -21 -5 5 -12 61 -14 124 l-4 114 13 -60 13 -60 5 60z m460
-15 c-2 -33 -8 -60 -13 -60 -10 0 -13 103 -2 113 15 15 18 4 15 -53z m-2002
40 c0 -5 -5 -10 -11 -10 -5 0 -7 5 -4 10 3 6 8 10 11 10 2 0 4 -4 4 -10z m157
-12 c-3 -8 -6 -5 -6 6 -1 11 2 17 5 13 3 -3 4 -12 1 -19z m372 -60 c-2 -78 -2
-80 -9 -33 -12 72 -11 115 0 115 6 0 9 -33 9 -82z m-162 40 c-3 -7 -5 -2 -5
12 0 14 2 19 5 13 2 -7 2 -19 0 -25z m1723 -28 c0 -27 -4 -52 -10 -55 -6 -4
-10 17 -10 55 0 38 4 59 10 55 6 -3 10 -28 10 -55z m1110 35 c-7 -9 -15 -13
-18 -10 -3 2 1 11 8 20 7 9 15 13 18 10 3 -2 -1 -11 -8 -20z m-3080 11 c0 -3
-4 -8 -10 -11 -5 -3 -10 -1 -10 4 0 6 5 11 10 11 6 0 10 -2 10 -4z m1380 -70
c-1 -17 4 -71 10 -121 6 -49 11 -109 10 -132 0 -23 4 -45 10 -48 5 -3 10 -27
10 -53 0 -77 -17 -34 -29 73 -6 55 -15 132 -21 170 -12 96 -12 199 1 166 5
-13 9 -38 9 -55z m1650 36 l-1 -27 -13 25 c-15 25 -12 45 5 35 5 -4 9 -18 9
-33z m-3143 -4 c-3 -7 -5 -2 -5 12 0 14 2 19 5 13 2 -7 2 -19 0 -25z m1468
-133 l5 -100 -15 55 c-8 30 -14 91 -14 135 1 66 3 74 10 45 4 -19 11 -80 14
-135z m-1136 128 c0 -25 -1 -25 -8 -8 -5 11 -7 23 -4 28 8 14 13 7 12 -20z
m-272 -20 c-3 -10 -5 -4 -5 12 0 17 2 24 5 18 2 -7 2 -21 0 -30z m360 5 c-3
-7 -5 -2 -5 12 0 14 2 19 5 13 2 -7 2 -19 0 -25z m1633 -30 c0 -20 -4 -40 -10
-43 -6 -4 -10 16 -10 52 0 41 3 54 10 43 5 -8 10 -32 10 -52z m-1753 20 c-3
-7 -5 -2 -5 12 0 14 2 19 5 13 2 -7 2 -19 0 -25z m1633 -28 c0 -33 -4 -60 -10
-60 -6 0 -10 27 -10 60 0 33 4 60 10 60 6 0 10 -27 10 -60z m1177 3 c-3 -10
-5 -2 -5 17 0 19 2 27 5 18 2 -10 2 -26 0 -35z m-1686 -24 c1 -24 5 -48 9 -54
4 -5 11 -44 14 -85 4 -41 9 -91 11 -110 2 -19 6 -71 8 -115 6 -79 6 -79 -4
-20 -5 33 -12 85 -15 115 -3 30 -10 60 -14 65 -9 12 -25 263 -16 254 3 -3 7
-26 7 -50z m476 -36 c-2 -16 -4 -3 -4 27 0 30 2 43 4 28 2 -16 2 -40 0 -55z
m-1560 20 c-3 -10 -5 -2 -5 17 0 19 2 27 5 18 2 -10 2 -26 0 -35z m120 25 c-3
-8 -6 -5 -6 6 -1 11 2 17 5 13 3 -3 4 -12 1 -19z m949 -135 c5 -78 4 -104 -4
-99 -6 4 -11 30 -11 59 0 29 -3 84 -5 122 -4 49 -3 63 4 47 5 -12 12 -70 16
-129z m584 132 c0 -8 -4 -15 -10 -15 -5 0 -10 7 -10 15 0 8 5 15 10 15 6 0 10
-7 10 -15z m140 -105 c6 0 10 -31 10 -70 0 -40 -4 -70 -10 -70 -6 0 -10 26
-10 58 0 31 -4 71 -8 87 -5 17 -6 50 -3 75 6 44 6 44 9 -17 2 -35 7 -63 12
-63z m1557 88 c-3 -7 -5 -2 -5 12 0 14 2 19 5 13 2 -7 2 -19 0 -25z m-3087
-39 c0 -27 -4 -49 -9 -49 -5 0 -10 25 -10 55 0 32 4 53 10 50 5 -4 9 -28 9
-56z m-113 19 c-3 -7 -5 -2 -5 12 0 14 2 19 5 13 2 -7 2 -19 0 -25z m1533 -3
c0 -15 -18 -30 -27 -22 -2 3 -2 15 2 26 7 23 25 19 25 -4z m-1713 -17 c-3 -7
-5 -2 -5 12 0 14 2 19 5 13 2 -7 2 -19 0 -25z m1033 -25 c0 -13 -4 -23 -10
-23 -5 0 -10 17 -10 38 0 27 3 33 10 22 5 -8 10 -25 10 -37z m30 2 c0 -19 -4
-37 -10 -40 -6 -4 -10 12 -10 40 0 28 4 44 10 40 6 -3 10 -21 10 -40z m2287 8
c-3 -10 -5 -4 -5 12 0 17 2 24 5 18 2 -7 2 -21 0 -30z m-2097 5 c0 -19 -2 -20
-10 -8 -13 19 -13 30 0 30 6 0 10 -10 10 -22z m509 -113 c11 -15 14 -115 3
-115 -11 0 -23 112 -20 190 l2 55 3 -60 c2 -32 8 -64 12 -70z m23 70 c0 -26
-3 -49 -6 -52 -3 -4 -6 20 -6 52 0 32 3 56 6 53 3 -4 6 -27 6 -53z m-1945 13
c-3 -7 -5 -2 -5 12 0 14 2 19 5 13 2 -7 2 -19 0 -25z m380 0 c-3 -7 -5 -2 -5
12 0 14 2 19 5 13 2 -7 2 -19 0 -25z m-170 0 c-3 -8 -6 -5 -6 6 -1 11 2 17 5
13 3 -3 4 -12 1 -19z m1583 -49 c0 -37 5 -70 10 -72 6 -3 5 -4 -2 -3 -8 2 -14
23 -16 59 -4 72 -20 74 -25 5 -3 -51 -3 -51 -5 12 -2 60 0 66 18 66 18 0 20
-7 20 -67z m106 -110 c4 -52 3 -79 -5 -83 -8 -5 -11 12 -11 58 0 35 -4 66 -8
68 -5 2 -6 35 -3 73 l5 70 8 -55 c4 -30 11 -89 14 -131z m-1749 149 c-3 -8 -6
-5 -6 6 -1 11 2 17 5 13 3 -3 4 -12 1 -19z m2500 -15 c-3 -10 -5 -4 -5 12 0
17 2 24 5 18 2 -7 2 -21 0 -30z m53 -54 c0 -16 -4 -29 -10 -29 -5 0 -10 15
-10 33 0 17 -3 43 -6 57 -5 23 -5 23 10 -4 9 -15 16 -41 16 -57z m-2173 39
c-3 -7 -5 -2 -5 12 0 14 2 19 5 13 2 -7 2 -19 0 -25z m372 -133 c5 -11 12 -72
14 -135 3 -72 2 -102 -3 -80 -5 19 -6 38 -4 42 3 5 1 8 -5 8 -5 0 -11 33 -13
73 -2 39 -5 77 -7 82 -2 6 -2 48 0 95 l3 85 3 -75 c2 -41 7 -84 12 -95z m948
88 c-2 -16 -4 -3 -4 27 0 30 2 43 4 28 2 -16 2 -40 0 -55z m-1360 35 c-3 -7
-5 -2 -5 12 0 14 2 19 5 13 2 -7 2 -19 0 -25z m934 -46 c4 -45 -13 -162 -22
-156 -12 7 -11 61 1 69 6 3 10 33 10 66 0 39 -4 58 -10 54 -6 -4 -9 -22 -8
-40 1 -19 -1 -37 -5 -41 -4 -4 -7 17 -7 47 0 63 20 97 32 54 4 -15 8 -38 9
-53z m1313 46 c-14 -48 -23 -54 -24 -15 0 27 4 37 16 37 11 0 14 -6 8 -22z
m-2307 -20 c-3 -7 -5 -2 -5 12 0 14 2 19 5 13 2 -7 2 -19 0 -25z m1763 -143
c-4 -12 -9 17 -12 70 -3 50 -3 95 1 100 9 15 19 -146 11 -170z m367 153 c-3
-8 -6 -5 -6 6 -1 11 2 17 5 13 3 -3 4 -12 1 -19z m303 -15 c0 -28 -3 -34 -10
-23 -13 20 -13 60 0 60 6 0 10 -17 10 -37z m-2463 -20 c-3 -10 -5 -2 -5 17 0
19 2 27 5 18 2 -10 2 -26 0 -35z m833 -9 c0 -34 -4 -53 -10 -49 -11 7 -13 48
-4 83 10 36 14 26 14 -34z m1207 14 c-3 -7 -5 -2 -5 12 0 14 2 19 5 13 2 -7 2
-19 0 -25z m-1831 -46 c-12 -12 -18 8 -10 35 l8 28 4 -28 c2 -16 1 -31 -2 -35z
m1354 13 c0 -19 -4 -37 -10 -40 -6 -4 -10 12 -10 40 0 28 4 44 10 40 6 -3 10
-21 10 -40z m683 -5 l4 -35 1 38 c1 20 6 37 11 37 12 0 21 -63 20 -135 l-1
-60 -8 53 c-11 77 -20 75 -22 -4 -2 -63 -2 -64 -5 -16 -6 77 -23 63 -25 -20
l-2 -73 -3 65 c-2 36 -8 69 -14 74 -12 13 -12 66 0 66 5 0 12 -10 14 -22 2
-13 5 2 6 32 1 59 17 59 24 0z m-1814 -52 c-1 -51 -4 -83 -7 -70 -7 23 -4 162
4 162 2 0 4 -42 3 -92z m502 3 c-9 -46 -9 -46 -9 24 -1 53 1 64 9 46 5 -14 6
-41 0 -70z m1141 54 c-6 -34 -12 -32 -12 6 0 16 4 28 9 25 4 -3 6 -17 3 -31z
m358 20 c0 -8 -7 -15 -15 -15 -16 0 -20 12 -8 23 11 12 23 8 23 -8z m777 -17
c-3 -7 -5 -2 -5 12 0 14 2 19 5 13 2 -7 2 -19 0 -25z m-3030 0 c-3 -8 -6 -5
-6 6 -1 11 2 17 5 13 3 -3 4 -12 1 -19z m870 -30 c-2 -13 -4 -5 -4 17 -1 22 1
32 4 23 2 -10 2 -28 0 -40z m30 20 c-3 -7 -5 -2 -5 12 0 14 2 19 5 13 2 -7 2
-19 0 -25z m583 -40 c0 -39 -3 -68 -7 -65 -9 10 -11 137 -1 137 4 0 8 -32 8
-72z m377 0 c-2 -13 -4 -3 -4 22 0 25 2 35 4 23 2 -13 2 -33 0 -45z m-1987 43
c0 -6 -4 -13 -10 -16 -5 -3 -10 1 -10 9 0 9 5 16 10 16 6 0 10 -4 10 -9z
m1390 -20 c0 -17 -4 -33 -10 -36 -6 -4 -10 8 -10 29 0 20 5 36 10 36 6 0 10
-13 10 -29z m911 5 c-5 -6 -11 -22 -14 -36 -4 -21 -4 -20 -6 8 -1 36 -21 45
-21 10 -1 -20 -2 -21 -10 -6 -16 27 -3 45 31 40 20 -3 27 -8 20 -16z m-881
-26 c0 -22 -4 -40 -10 -40 -5 0 -10 18 -10 40 0 22 5 40 10 40 6 0 10 -18 10
-40z m914 25 c-4 -8 -8 -15 -10 -15 -2 0 -4 7 -4 15 0 8 4 15 10 15 5 0 7 -7
4 -15z m106 -11 c0 -22 -2 -25 -15 -14 -8 7 -15 19 -15 26 0 8 7 14 15 14 10
0 15 -10 15 -26z m-2303 -31 c-3 -10 -5 -4 -5 12 0 17 2 24 5 18 2 -7 2 -21 0
-30z m60 -25 c-2 -13 -4 -3 -4 22 0 25 2 35 4 23 2 -13 2 -33 0 -45z m30 0
c-2 -13 -4 -3 -4 22 0 25 2 35 4 23 2 -13 2 -33 0 -45z m594 -55 c-8 -14 -10
-1 -10 52 l1 70 10 -52 c6 -35 6 -58 -1 -70z m1314 54 c4 -35 5 -74 2 -88 -2
-13 -5 -3 -6 24 0 26 -5 47 -11 47 -5 0 -10 18 -10 40 0 63 18 47 25 -23z
m-556 6 l-2 -48 -6 40 c-7 38 -5 55 5 55 2 0 3 -21 3 -47z m808 0 c-3 -10 -5
-2 -5 17 0 19 2 27 5 18 2 -10 2 -26 0 -35z m-2220 0 c-3 -10 -5 -4 -5 12 0
17 2 24 5 18 2 -7 2 -21 0 -30z m633 -35 c0 -26 -4 -50 -10 -53 -6 -4 -10 19
-10 62 0 48 3 63 10 53 5 -8 10 -36 10 -62z m530 17 c0 -30 -4 -55 -8 -55 -4
0 -8 25 -8 55 0 30 4 55 8 55 4 0 8 -25 8 -55z m-1013 23 c-3 -8 -6 -5 -6 6
-1 11 2 17 5 13 3 -3 4 -12 1 -19z m1230 -70 c-2 -18 -4 -4 -4 32 0 36 2 50 4
33 2 -18 2 -48 0 -65z m470 70 c-3 -8 -6 -5 -6 6 -1 11 2 17 5 13 3 -3 4 -12
1 -19z m-2070 -20 c-3 -7 -5 -2 -5 12 0 14 2 19 5 13 2 -7 2 -19 0 -25z m1980
-20 c-2 -13 -4 -5 -4 17 -1 22 1 32 4 23 2 -10 2 -28 0 -40z m1100 30 c-3 -8
-6 -5 -6 6 -1 11 2 17 5 13 3 -3 4 -12 1 -19z m-3020 -10 c-3 -8 -6 -5 -6 6
-1 11 2 17 5 13 3 -3 4 -12 1 -19z m30 0 c-3 -8 -6 -5 -6 6 -1 11 2 17 5 13 3
-3 4 -12 1 -19z m2810 0 c-3 -8 -6 -5 -6 6 -1 11 2 17 5 13 3 -3 4 -12 1 -19z
m343 -44 c0 -18 6 -61 14 -96 8 -35 17 -94 20 -133 3 -38 10 -94 16 -124 15
-81 13 -158 -5 -165 -18 -6 -20 5 -4 21 14 14 -8 143 -28 159 -7 6 -10 13 -7
16 3 3 7 24 9 47 3 32 0 45 -16 60 -12 11 -16 21 -10 25 5 4 8 26 6 49 -7 82
-15 152 -20 182 -6 28 -5 29 10 11 8 -11 15 -34 15 -52z m-3972 -74 c2 -80 0
-120 -7 -120 -13 0 -14 14 -15 142 -1 144 18 124 22 -22z m2142 98 c0 -16 -3
-19 -11 -11 -6 6 -8 16 -5 22 11 17 16 13 16 -11z m897 0 c-3 -8 -6 -5 -6 6
-1 11 2 17 5 13 3 -3 4 -12 1 -19z m233 -14 c0 -26 -9 -31 -28 -12 -8 8 -8 17
-1 30 13 24 29 14 29 -18z m-1591 -16 c0 -33 -2 -38 -9 -23 -12 28 -12 65 0
65 6 0 10 -19 9 -42z m-772 -15 c-3 -10 -5 -2 -5 17 0 19 2 27 5 18 2 -10 2
-26 0 -35z m893 22 c0 -14 -4 -25 -10 -25 -5 0 -10 11 -10 25 0 14 5 25 10 25
6 0 10 -11 10 -25z m497 -57 c-2 -18 -4 -6 -4 27 0 33 2 48 4 33 2 -15 2 -42
0 -60z m-1327 52 c0 -11 -2 -20 -4 -20 -2 0 -6 9 -9 20 -3 11 -1 20 4 20 5 0
9 -9 9 -20z m589 -120 c1 -46 -1 -61 -9 -50 -5 8 -7 22 -5 30 2 8 0 22 -5 30
-7 11 -10 -3 -10 -44 0 -33 -3 -56 -7 -52 -8 8 -4 106 5 120 3 6 5 33 4 60
l-1 51 13 -40 c7 -22 14 -69 15 -105z m-762 108 c-3 -8 -6 -5 -6 6 -1 11 2 17
5 13 3 -3 4 -12 1 -19z m723 -6 c0 -16 -3 -32 -7 -36 -9 -9 -10 -14 -12 -58 0
-17 -4 -29 -7 -25 -9 9 7 147 17 147 5 0 9 -13 9 -28z m657 6 c-3 -8 -6 -5 -6
6 -1 11 2 17 5 13 3 -3 4 -12 1 -19z m198 -8 c7 0 15 6 17 12 8 24 13 -28 7
-72 l-6 -45 -2 40 c-1 28 -4 36 -10 26 -5 -8 -7 -20 -4 -27 2 -6 0 -15 -6 -19
-7 -4 -11 3 -11 17 0 13 -2 41 -5 63 -2 22 -2 32 1 23 3 -10 12 -18 19 -18z
m-1327 -23 c13 -4 12 -5 -4 -6 -21 -1 -39 30 -25 44 3 4 7 -2 9 -13 2 -12 11
-23 20 -25z m1099 -19 c-2 -13 -4 -3 -4 22 0 25 2 35 4 23 2 -13 2 -33 0 -45z
m-977 -6 c-7 -13 -9 -8 -9 23 0 35 1 37 10 17 6 -15 5 -30 -1 -40z m1367 -4
c-3 -20 -4 -21 -11 -5 -5 9 -5 29 0 45 7 25 8 26 11 5 3 -13 3 -33 0 -45z
m-800 20 c-3 -7 -5 -2 -5 12 0 14 2 19 5 13 2 -7 2 -19 0 -25z m773 -24 c0
-34 -4 -53 -10 -49 -5 3 -10 28 -10 56 0 27 5 49 10 49 6 0 10 -25 10 -56z
m548 21 c1 -19 -3 -37 -8 -40 -6 -4 -10 11 -10 34 0 50 16 55 18 6z m-28 -20
c0 -19 -4 -37 -10 -40 -6 -4 -10 12 -10 40 0 28 4 44 10 40 6 -3 10 -21 10
-40z m-2273 13 c-3 -8 -6 -5 -6 6 -1 11 2 17 5 13 3 -3 4 -12 1 -19z m160 -15
c-3 -10 -5 -4 -5 12 0 17 2 24 5 18 2 -7 2 -21 0 -30z m203 6 c0 -10 -4 -19
-10 -19 -5 0 -10 12 -10 26 0 14 4 23 10 19 6 -3 10 -15 10 -26z m470 -31 c-1
-41 -4 -58 -9 -48 -8 14 -3 110 5 110 2 0 4 -28 4 -62z m44 -94 c2 -6 0 -17
-5 -25 -6 -10 -9 -3 -9 23 0 20 -4 47 -9 60 -4 13 -6 41 -3 63 5 36 7 32 14
-35 4 -41 10 -80 12 -86z m140 141 c3 -9 0 -15 -9 -15 -8 0 -15 7 -15 15 0 8
4 15 9 15 5 0 11 -7 15 -15z m493 -37 c-2 -13 -4 -5 -4 17 -1 22 1 32 4 23 2
-10 2 -28 0 -40z m1580 30 c-3 -8 -6 -5 -6 6 -1 11 2 17 5 13 3 -3 4 -12 1
-19z m-2870 -10 c-3 -8 -6 -5 -6 6 -1 11 2 17 5 13 3 -3 4 -12 1 -19z m2183
12 c0 -5 -4 -10 -10 -10 -5 0 -10 5 -10 10 0 6 5 10 10 10 6 0 10 -4 10 -10z
m97 -42 c-4 -23 -4 -23 -14 2 -8 18 -8 29 1 39 9 12 11 12 14 -2 2 -9 2 -27
-1 -39z m-2197 26 c0 -2 -7 -4 -15 -4 -8 0 -15 4 -15 10 0 5 7 7 15 4 8 -4 15
-8 15 -10z m1177 -31 c-3 -10 -5 -2 -5 17 0 19 2 27 5 18 2 -10 2 -26 0 -35z
m583 20 c0 -20 -3 -24 -11 -16 -7 7 -9 19 -6 27 10 24 17 19 17 -11z m-1346
-38 c3 -30 9 -80 12 -110 3 -33 2 -55 -4 -55 -5 0 -13 39 -17 88 -4 48 -11 94
-16 103 -8 16 -3 29 12 29 4 0 10 -25 13 -55z m243 -12 c-2 -16 -4 -5 -4 22 0
28 2 40 4 28 2 -13 2 -35 0 -50z m1072 25 c0 -33 -2 -38 -9 -23 -12 28 -12 65
0 65 6 0 10 -19 9 -42z m211 -13 c0 -30 -4 -55 -10 -55 -5 0 -10 25 -10 55 0
30 5 55 10 55 6 0 10 -25 10 -55z m907 33 c-3 -8 -6 -5 -6 6 -1 11 2 17 5 13
3 -3 4 -12 1 -19z m-1566 -46 c1 -29 -1 -55 -4 -59 -4 -3 -7 22 -7 57 0 75 9
77 11 2z m356 -19 c-2 -16 -4 -3 -4 27 0 30 2 43 4 28 2 -16 2 -40 0 -55z
m-1478 30 c0 -35 -1 -36 -10 -14 -5 14 -7 31 -5 38 10 24 16 13 15 -24z m480
4 c0 -12 -4 -31 -9 -42 -6 -15 -9 -8 -9 28 -1 30 3 46 9 42 6 -3 10 -16 9 -28z
m48 -49 c-2 -18 -4 -6 -4 27 0 33 2 48 4 33 2 -15 2 -42 0 -60z m60 15 c-2
-16 -4 -5 -4 22 0 28 2 40 4 28 2 -13 2 -35 0 -50z m920 20 c-3 -10 -5 -2 -5
17 0 19 2 27 5 18 2 -10 2 -26 0 -35z m32 20 c0 -25 -1 -25 -8 -8 -5 11 -7 23
-4 28 8 14 13 7 12 -20z m214 -108 c2 -60 2 -87 0 -60 -2 28 -8 54 -14 59 -5
6 -9 39 -9 75 1 106 17 50 23 -74z m-1697 77 c-11 -10 -15 4 -8 28 l7 25 3
-23 c2 -13 1 -26 -2 -30z m-87 6 c0 -27 -2 -29 -8 -13 -5 11 -6 26 -4 33 8 21
13 13 12 -20z m112 -61 c-6 -6 -11 -20 -11 -31 -1 -19 -2 -19 -14 3 -12 21
-12 27 0 39 8 7 14 22 14 32 0 10 3 27 8 37 5 13 8 5 10 -26 2 -24 -2 -49 -7
-54z m359 18 c-7 -38 -8 -36 -8 20 -1 40 2 53 7 40 5 -11 5 -38 1 -60z m653 3
c2 -32 0 -58 -5 -58 -4 0 -8 30 -7 68 1 77 6 73 12 -10z m787 62 c0 -5 -2 -10
-4 -10 -3 0 -8 5 -11 10 -3 6 -1 10 4 10 6 0 11 -4 11 -10z m93 -5 c4 -8 2
-17 -3 -20 -6 -4 -10 3 -10 14 0 25 6 27 13 6z m-1226 -32 c-3 -10 -5 -4 -5
12 0 17 2 24 5 18 2 -7 2 -21 0 -30z m-810 -10 c-3 -10 -5 -4 -5 12 0 17 2 24
5 18 2 -7 2 -21 0 -30z m280 -40 c-2 -16 -4 -3 -4 27 0 30 2 43 4 28 2 -16 2
-40 0 -55z m-500 45 c-3 -8 -6 -5 -6 6 -1 11 2 17 5 13 3 -3 4 -12 1 -19z
m470 -70 c-2 -18 -4 -4 -4 32 0 36 2 50 4 33 2 -18 2 -48 0 -65z m370 55 c-3
-10 -5 -4 -5 12 0 17 2 24 5 18 2 -7 2 -21 0 -30z m105 -10 c-10 -28 -10 -28
-11 12 -1 28 2 36 10 28 8 -8 8 -19 1 -40z m395 -45 c-2 -18 -4 -4 -4 32 0 36
2 50 4 33 2 -18 2 -48 0 -65z m276 25 c2 -29 0 -53 -4 -53 -5 0 -9 28 -8 63 1
71 5 67 12 -10z m114 35 c-3 -7 -5 -2 -5 12 0 14 2 19 5 13 2 -7 2 -19 0 -25z
m493 23 c0 -11 -26 -22 -34 -14 -12 12 -5 23 14 23 11 0 20 -4 20 -9z m89 2
c0 -5 -4 -17 -9 -28 -8 -18 -9 -17 -9 8 -1 15 4 27 9 27 6 0 10 -3 9 -7z
m-991 -86 c2 -45 -1 -78 -7 -82 -8 -4 -11 22 -11 80 0 105 15 106 18 2z m652
63 c0 -5 -5 -10 -11 -10 -5 0 -7 5 -4 10 3 6 8 10 11 10 2 0 4 -4 4 -10z m30
-31 c0 -16 -4 -29 -10 -29 -5 0 -10 16 -10 36 0 21 4 33 10 29 6 -3 10 -19 10
-36z m-1963 -1 c-3 -7 -5 -2 -5 12 0 14 2 19 5 13 2 -7 2 -19 0 -25z m400 -50
c-2 -18 -4 -6 -4 27 0 33 2 48 4 33 2 -15 2 -42 0 -60z m226 -12 c-3 -10 0
-22 7 -26 7 -4 10 -16 8 -26 -9 -36 -28 33 -27 94 1 57 1 57 9 17 5 -22 6 -48
3 -59z m1464 62 c-3 -7 -5 -2 -5 12 0 14 2 19 5 13 2 -7 2 -19 0 -25z m-1834
-19 c-8 -29 -13 -23 -13 14 0 22 3 28 9 18 5 -7 6 -22 4 -32z m1182 21 c0 -7
-8 -14 -17 -16 -20 -3 -20 -2 -12 21 7 18 29 15 29 -5z m622 -27 c-3 -10 -5
-2 -5 17 0 19 2 27 5 18 2 -10 2 -26 0 -35z m-2090 5 c-3 -7 -5 -2 -5 12 0 14
2 19 5 13 2 -7 2 -19 0 -25z m263 7 c0 -8 -4 -17 -10 -20 -6 -4 -10 5 -10 20
0 15 4 24 10 20 6 -3 10 -12 10 -20z m137 -67 c-2 -18 -4 -6 -4 27 0 33 2 48
4 33 2 -15 2 -42 0 -60z m225 -10 c-9 -9 -12 1 -11 43 l1 54 11 -43 c7 -31 7
-46 -1 -54z m138 55 c0 -20 -3 -24 -11 -16 -7 7 -9 19 -6 27 10 24 17 19 17
-11z m307 -40 c-2 -16 -4 -5 -4 22 0 28 2 40 4 28 2 -13 2 -35 0 -50z m-510
35 c-3 -8 -6 -5 -6 6 -1 11 2 17 5 13 3 -3 4 -12 1 -19z m1690 0 c-3 -8 -6 -5
-6 6 -1 11 2 17 5 13 3 -3 4 -12 1 -19z m-1520 -50 c-2 -13 -4 -3 -4 22 0 25
2 35 4 23 2 -13 2 -33 0 -45z m682 -40 c-1 -82 -3 -94 -9 -58 -6 39 -7 74 -1
143 0 9 3 17 6 17 3 0 4 -46 4 -102z m31 45 c0 -35 -4 -53 -9 -47 -9 8 -3 104
5 104 2 0 4 -26 4 -57z m30 35 c0 -19 -2 -20 -10 -8 -13 19 -13 30 0 30 6 0
10 -10 10 -22z m587 -60 c-2 -18 -4 -6 -4 27 0 33 2 48 4 33 2 -15 2 -42 0
-60z m-1547 32 c0 -16 -4 -32 -10 -35 -6 -4 -10 10 -10 35 0 25 4 39 10 35 6
-3 10 -19 10 -35z m762 -22 c-9 -20 -11 -18 -11 22 0 40 2 42 11 23 8 -17 8
-29 0 -45z m-971 30 c1 -13 0 -36 -1 -53 -2 -29 -1 -29 14 -10 8 11 16 26 16
34 0 8 3 12 6 9 3 -4 2 -28 -2 -54 -6 -43 -8 -46 -20 -29 -13 17 -14 16 -14
-13 0 -37 -16 -43 -23 -9 -2 12 -5 0 -6 -26 -1 -32 -5 -46 -12 -41 -7 4 -9 21
-5 43 4 28 1 41 -12 52 -14 12 -17 25 -13 60 l6 44 3 -37 c3 -39 22 -54 22
-18 0 11 6 19 13 18 7 -2 12 8 12 25 -1 32 15 37 16 5z m78 -60 c0 -10 -3 -18
-9 -18 -5 0 -9 21 -9 48 1 42 2 44 9 17 4 -16 8 -38 9 -47z m318 20 c-2 -13
-4 -5 -4 17 -1 22 1 32 4 23 2 -10 2 -28 0 -40z m1090 30 c-3 -8 -6 -5 -6 6
-1 11 2 17 5 13 3 -3 4 -12 1 -19z m-1200 -35 c-3 -10 -5 -2 -5 17 0 19 2 27
5 18 2 -10 2 -26 0 -35z m792 -70 c-1 -68 -4 -103 -8 -83 -6 36 -3 200 5 200
2 0 3 -53 3 -117z m551 101 c0 -8 -4 -12 -10 -9 -5 3 -10 10 -10 16 0 5 5 9
10 9 6 0 10 -7 10 -16z m-1450 -25 c0 -17 -4 -28 -10 -24 -5 3 -10 17 -10 31
0 13 5 24 10 24 6 0 10 -14 10 -31z m90 5 c0 -8 -4 -12 -10 -9 -5 3 -10 13
-10 21 0 8 5 12 10 9 6 -3 10 -13 10 -21z m1307 4 c-3 -8 -6 -5 -6 6 -1 11 2
17 5 13 3 -3 4 -12 1 -19z m120 -55 c-2 -16 -4 -3 -4 27 0 30 2 43 4 28 2 -16
2 -40 0 -55z m193 56 c0 -6 -4 -7 -10 -4 -5 3 -10 11 -10 16 0 6 5 7 10 4 6
-3 10 -11 10 -16z m-1741 -52 c-1 -45 -2 -48 -9 -22 -11 45 -11 87 0 80 6 -3
9 -30 9 -58z m798 31 c-3 -7 -5 -2 -5 12 0 14 2 19 5 13 2 -7 2 -19 0 -25z
m253 16 c0 -14 -3 -15 -17 -3 -10 7 -20 15 -22 16 -2 2 5 3 17 3 14 0 22 -6
22 -16z m351 -29 c2 -38 26 -75 49 -75 5 0 10 -4 10 -10 0 -10 -23 -4 -55 16
-11 6 -32 14 -47 18 -24 5 -28 11 -27 39 l1 32 13 -35 c12 -32 14 -33 16 -10
2 24 2 24 6 3 8 -40 23 -24 23 24 0 55 8 54 11 -2z m-501 25 c0 -5 -4 -10 -10
-10 -5 0 -10 5 -10 10 0 6 5 10 10 10 6 0 10 -4 10 -10z m628 -110 c4 0 18 7
30 16 13 9 22 11 22 4 0 -13 -48 -32 -61 -24 -5 3 -8 33 -7 67 l2 62 3 -62 c2
-35 7 -63 11 -63z m-2032 -7 c-7 -17 -9 -16 -27 6 -10 13 -18 31 -18 40 1 13
2 13 6 -2 8 -30 23 -8 24 36 l2 42 10 -52 c5 -28 6 -60 3 -70z m1031 95 c-3
-8 -6 -5 -6 6 -1 11 2 17 5 13 3 -3 4 -12 1 -19z m1173 7 c0 -8 -4 -15 -10
-15 -5 0 -10 7 -10 15 0 8 5 15 10 15 6 0 10 -7 10 -15z m-2313 -17 c-3 -8 -6
-5 -6 6 -1 11 2 17 5 13 3 -3 4 -12 1 -19z m70 0 c-3 -8 -6 -5 -6 6 -1 11 2
17 5 13 3 -3 4 -12 1 -19z m66 -58 c-3 -15 0 -31 6 -34 6 -4 11 -15 11 -24 -1
-15 -2 -15 -15 2 -10 13 -15 41 -14 80 1 51 2 56 9 32 5 -16 7 -41 3 -56z
m1094 58 c-3 -8 -6 -5 -6 6 -1 11 2 17 5 13 3 -3 4 -12 1 -19z m403 -10 c0
-23 -3 -29 -9 -19 -8 12 -4 51 5 51 2 0 4 -15 4 -32z m90 16 c0 -8 -4 -12 -10
-9 -5 3 -10 10 -10 16 0 5 5 9 10 9 6 0 10 -7 10 -16z m654 0 c3 -9 6 -29 6
-45 0 -30 -13 -36 -40 -19 -12 8 -11 10 8 10 25 0 29 22 7 40 -8 7 -12 16 -9
21 8 14 21 11 28 -7z m-1794 -36 c-1 -34 -3 -39 -11 -26 -8 15 -3 68 7 68 2 0
4 -19 4 -42z m617 10 c-3 -7 -5 -2 -5 12 0 14 2 19 5 13 2 -7 2 -19 0 -25z
m313 -55 c0 -47 -2 -84 -4 -82 -8 8 -12 169 -4 169 4 0 8 -39 8 -87z m180 60
c0 -29 -12 -24 -17 7 -2 11 2 20 7 20 6 0 10 -12 10 -27z m-1640 2 c0 -8 -4
-15 -10 -15 -5 0 -10 7 -10 15 0 8 5 15 10 15 6 0 10 -7 10 -15z m320 -5 c0
-11 7 -23 15 -26 10 -4 15 -19 13 -48 -1 -37 -2 -38 -5 -8 -6 45 -23 30 -24
-21 -1 -41 -1 -41 -14 18 -13 60 -11 105 6 105 5 0 9 -9 9 -20z m1898 13 c-10
-2 -18 -11 -18 -19 0 -8 -4 -14 -10 -14 -5 0 -10 4 -10 8 0 14 23 32 40 31 11
-1 11 -2 -2 -6z m-1591 -55 c-2 -13 -4 -5 -4 17 -1 22 1 32 4 23 2 -10 2 -28
0 -40z m923 32 c0 -11 -4 -20 -9 -20 -5 0 -7 9 -4 20 3 11 7 20 9 20 2 0 4 -9
4 -20z m-893 -27 c-3 -10 -5 -4 -5 12 0 17 2 24 5 18 2 -7 2 -21 0 -30z m400
5 c-3 -7 -5 -2 -5 12 0 14 2 19 5 13 2 -7 2 -19 0 -25z m372 -75 c0 -60 -4
-97 -7 -83 -7 26 -4 190 4 190 2 0 4 -48 3 -107z m308 -5 c-2 -24 -4 -7 -4 37
0 44 2 63 4 43 2 -21 2 -57 0 -80z m81 66 c-3 -37 -25 -37 -31 -1 -2 18 -3 36
0 40 9 15 33 -15 31 -39z m472 36 c0 -5 -7 -10 -16 -10 -8 0 -12 5 -9 10 3 6
10 10 16 10 5 0 9 -4 9 -10z m-1263 -37 c-3 -10 -5 -4 -5 12 0 17 2 24 5 18 2
-7 2 -21 0 -30z m333 27 c0 -5 -7 -10 -16 -10 -8 0 -12 5 -9 10 3 6 10 10 16
10 5 0 9 -4 9 -10z m407 -87 c-2 -21 -4 -6 -4 32 0 39 2 55 4 38 2 -18 2 -50
0 -70z m-1050 50 c-3 -10 -5 -4 -5 12 0 17 2 24 5 18 2 -7 2 -21 0 -30z m603
33 c0 -11 -19 -15 -25 -6 -3 5 1 10 9 10 9 0 16 -2 16 -4z m727 -33 c-3 -10
-5 -4 -5 12 0 17 2 24 5 18 2 -7 2 -21 0 -30z m-860 5 c-3 -8 -6 -5 -6 6 -1
11 2 17 5 13 3 -3 4 -12 1 -19z m390 0 c-3 -8 -6 -5 -6 6 -1 11 2 17 5 13 3
-3 4 -12 1 -19z m33 -9 c0 -17 -4 -28 -10 -24 -5 3 -10 17 -10 31 0 13 5 24
10 24 6 0 10 -14 10 -31z m-1013 -16 c-3 -10 -5 -4 -5 12 0 17 2 24 5 18 2 -7
2 -21 0 -30z m1260 -60 c-2 -21 -4 -6 -4 32 0 39 2 55 4 38 2 -18 2 -50 0 -70z
m-860 9 c-2 -15 -4 -2 -4 28 0 30 2 43 4 27 2 -15 2 -39 0 -55z m153 68 c0 -5
-5 -10 -11 -10 -5 0 -7 5 -4 10 3 6 8 10 11 10 2 0 4 -4 4 -10z m187 -12 c-3
-8 -6 -5 -6 6 -1 11 2 17 5 13 3 -3 4 -12 1 -19z m-28 -40 l-2 -53 -7 45 c-7
42 -5 60 6 60 2 0 3 -24 3 -52z m638 -10 c-2 -13 -4 -3 -4 22 0 25 2 35 4 23
2 -13 2 -33 0 -45z m327 3 c-5 -21 -12 -31 -25 -31 -11 0 -19 -7 -20 -17 -1
-17 -2 -17 -6 -1 -2 10 -11 18 -19 18 -8 0 -14 4 -14 10 0 5 3 9 8 8 4 -1 19
5 35 12 19 9 27 21 27 39 1 22 2 23 10 9 6 -9 7 -30 4 -47z m33 39 c-5 -31
-17 -36 -17 -7 0 15 4 27 10 27 5 0 9 -9 7 -20z m-1740 -12 c-3 -8 -6 -5 -6 6
-1 11 2 17 5 13 3 -3 4 -12 1 -19z m400 -45 c-2 -16 -4 -5 -4 22 0 28 2 40 4
28 2 -13 2 -35 0 -50z m746 -5 c2 -32 0 -58 -5 -58 -4 0 -8 30 -7 68 1 77 6
73 12 -10z m447 57 c0 -8 -4 -15 -10 -15 -5 0 -10 7 -10 15 0 8 5 15 10 15 6
0 10 -7 10 -15z m40 -18 c0 -18 -2 -19 -10 -7 -13 20 -13 43 0 35 6 -3 10 -16
10 -28z m-833 -24 c-3 -10 -5 -4 -5 12 0 17 2 24 5 18 2 -7 2 -21 0 -30z m190
15 c-3 -8 -6 -5 -6 6 -1 11 2 17 5 13 3 -3 4 -12 1 -19z m360 -35 c-3 -10 -5
-2 -5 17 0 19 2 27 5 18 2 -10 2 -26 0 -35z m-640 -25 c-2 -13 -4 -5 -4 17 -1
22 1 32 4 23 2 -10 2 -28 0 -40z m250 -10 c-2 -13 -4 -3 -4 22 0 25 2 35 4 23
2 -13 2 -33 0 -45z m-1170 15 c-3 -10 -5 -4 -5 12 0 17 2 24 5 18 2 -7 2 -21
0 -30z m980 0 c-3 -10 -5 -4 -5 12 0 17 2 24 5 18 2 -7 2 -21 0 -30z m758 28
c3 -5 1 -12 -5 -16 -5 -3 -10 1 -10 9 0 18 6 21 15 7z m-1158 -53 c-2 -13 -4
-5 -4 17 -1 22 1 32 4 23 2 -10 2 -28 0 -40z m-120 -5 c-3 -10 -5 -5 -5 12 0
17 2 24 5 18 2 -7 2 -21 0 -30z m1382 10 c0 -25 -1 -25 -8 -8 -5 11 -7 23 -4
28 8 14 13 7 12 -20z m-312 -5 c-3 -8 -6 -5 -6 6 -1 11 2 17 5 13 3 -3 4 -12
1 -19z m-127 8 c0 -3 -4 -8 -10 -11 -5 -3 -10 -1 -10 4 0 6 5 11 10 11 6 0 10
-2 10 -4z m475 -16 c3 -5 1 -10 -4 -10 -6 0 -11 5 -11 10 0 6 2 10 4 10 3 0 8
-4 11 -10z"/>
<path d="M6210 3838 c-110 -23 -129 -31 -169 -71 -25 -24 -41 -49 -41 -64 0
-30 11 -29 51 4 29 24 41 27 120 30 86 2 119 -10 62 -23 -16 -3 -39 -10 -53
-15 -32 -13 -120 -72 -120 -81 0 -36 133 -60 186 -33 18 9 35 26 38 40 7 26
20 32 31 14 4 -5 -1 -19 -10 -29 -15 -16 -15 -22 -5 -35 7 -8 17 -15 22 -15 6
0 6 6 -1 14 -9 10 -6 17 13 30 14 9 30 16 37 16 7 0 9 9 5 25 -5 18 -2 25 8
25 23 0 31 21 12 32 -26 14 -19 27 19 34 92 17 -17 116 -124 113 -20 -1 -56
-6 -81 -11z m33 -155 c-7 -2 -19 -2 -25 0 -7 3 -2 5 12 5 14 0 19 -2 13 -5z
m-68 -23 c-16 -10 -31 -17 -34 -14 -7 6 32 33 49 34 8 0 2 -9 -15 -20z"/>
<path d="M6765 3600 c-4 -6 7 -10 25 -10 18 0 29 4 25 10 -3 6 -15 10 -25 10
-10 0 -22 -4 -25 -10z"/>
<path d="M6740 3411 c0 -6 5 -13 10 -16 6 -3 10 -12 10 -19 0 -7 34 -48 76
-90 69 -69 75 -78 55 -83 -14 -4 -21 -13 -21 -30 0 -21 -3 -24 -22 -19 -115
33 -137 36 -189 31 -50 -6 -104 -24 -71 -25 20 0 14 -20 -10 -29 -15 -6 8 -8
67 -6 99 3 149 -11 161 -47 8 -26 -8 -41 -48 -43 -45 -3 -98 -16 -98 -24 0 -4
32 -6 72 -4 70 2 73 4 111 43 23 23 49 40 62 40 19 0 21 4 17 27 -4 21 -2 25
11 20 27 -10 28 33 1 86 -32 64 -52 90 -120 148 -54 48 -74 59 -74 40z m197
-227 c-3 -3 -12 -4 -19 -1 -8 3 -5 6 6 6 11 1 17 -2 13 -5z"/>
<path d="M6296 3318 c-26 -29 -54 -60 -61 -68 -18 -20 -32 -100 -17 -100 6 0
8 -16 5 -39 -3 -22 -2 -52 1 -66 6 -23 11 -26 32 -21 15 4 37 0 57 -10 61 -32
66 -34 72 -24 3 6 -1 10 -9 10 -8 0 -20 9 -26 20 -8 16 -7 23 10 37 11 10 20
24 20 32 0 8 3 12 6 8 3 -3 18 -1 33 5 14 6 49 14 78 17 l51 6 -22 28 -22 28
-80 -14 c-82 -14 -134 -39 -134 -63 0 -8 -7 -14 -15 -14 -13 0 -12 6 5 40 24
47 25 60 5 60 -19 0 -19 14 -1 29 8 7 24 31 35 54 12 23 27 50 33 59 9 12 9
21 2 28 -8 8 -25 -5 -58 -42z m74 -202 c0 -3 -4 -8 -10 -11 -5 -3 -10 -1 -10
4 0 6 5 11 10 11 6 0 10 -2 10 -4z"/>
<path d="M6675 3294 c-16 -8 -37 -22 -46 -30 -22 -20 -78 -20 -114 -1 -17 8
-47 18 -68 22 -36 7 -37 7 -37 -24 0 -45 42 -61 164 -61 85 0 96 2 106 20 6
11 17 20 25 20 10 0 15 11 15 35 0 40 -3 41 -45 19z"/>
<path d="M6420 2995 c0 -10 10 -15 34 -15 21 0 36 6 40 15 4 12 -3 15 -34 15
-29 0 -40 -4 -40 -15z"/>
<path d="M6638 2913 c6 -2 18 -2 25 0 6 3 1 5 -13 5 -14 0 -19 -2 -12 -5z"/>
<path d="M7026 2806 c-27 -42 -69 -81 -103 -95 -18 -7 -40 -27 -50 -43 -14
-23 -36 -35 -100 -58 -97 -33 -147 -38 -225 -20 -46 10 -60 11 -72 0 -13 -10
-25 -6 -68 23 -29 19 -62 44 -72 56 -11 12 -27 21 -36 21 -9 0 -39 11 -66 25
-27 14 -55 25 -62 25 -20 0 -9 -24 16 -35 13 -5 21 -16 20 -24 -2 -8 12 -30
30 -50 19 -20 40 -48 48 -63 8 -16 19 -28 24 -28 6 0 10 -7 10 -16 0 -8 5 -12
10 -9 6 3 13 0 16 -8 6 -16 124 -76 200 -101 35 -12 65 -15 90 -11 52 9 180
72 202 99 9 12 24 20 33 18 11 -2 19 6 23 25 4 15 36 75 70 133 76 126 89 150
83 156 -2 3 -12 -7 -21 -20z"/>
<path d="M6638 2212 c-21 -2 -38 -7 -38 -11 0 -12 63 -21 74 -11 16 16 1 25
-36 22z"/>
<path d="M7640 2330 c0 -6 7 -10 15 -10 8 0 15 2 15 4 0 2 -7 6 -15 10 -8 3
-15 1 -15 -4z"/>
<path d="M7698 2298 c7 -7 12 -23 12 -36 0 -13 4 -21 10 -17 6 4 8 15 5 26 -4
10 -2 19 4 19 5 0 12 -15 14 -32 l4 -33 1 36 c2 30 -2 38 -20 43 -35 9 -43 7
-30 -6z"/>
<path d="M7768 2294 c-6 -5 7 -72 15 -81 3 -2 4 14 3 36 -2 41 -8 56 -18 45z"/>
<path d="M7830 2270 c0 -6 7 -10 15 -10 8 0 15 2 15 4 0 2 -7 6 -15 10 -8 3
-15 1 -15 -4z"/>
<path d="M7913 2263 c9 -2 17 -9 17 -14 0 -5 15 -9 33 -9 l32 1 -40 14 c-22 8
-44 14 -50 14 -5 -1 -2 -3 8 -6z"/>
<path d="M7660 2245 c0 -8 7 -15 15 -15 9 0 12 6 9 15 -4 8 -10 15 -15 15 -5
0 -9 -7 -9 -15z"/>
<path d="M7920 2215 c0 -8 4 -15 9 -15 5 0 11 7 15 15 3 9 0 15 -9 15 -8 0
-15 -7 -15 -15z"/>
<path d="M7962 2210 c0 -14 2 -19 5 -12 2 6 2 18 0 25 -3 6 -5 1 -5 -13z"/>
<path d="M7991 2214 c0 -11 3 -14 6 -6 3 7 2 16 -1 19 -3 4 -6 -2 -5 -13z"/>
<path d="M7801 2174 c0 -11 3 -14 6 -6 3 7 2 16 -1 19 -3 4 -6 -2 -5 -13z"/>
<path d="M7765 2158 c4 -13 13 -32 20 -43 24 -39 26 -78 6 -129 -10 -27 -20
-43 -23 -35 -4 11 -8 11 -22 -4 -10 -9 -22 -17 -27 -17 -5 0 -8 -17 -8 -37 1
-24 3 -29 6 -15 5 27 23 29 23 3 0 -11 4 -22 8 -25 5 -3 7 9 5 27 -4 30 -3 31
11 13 15 -18 16 -18 26 10 6 16 14 41 17 57 7 33 20 35 26 5 3 -13 3 1 1 30
-3 35 -1 51 6 47 6 -4 10 5 10 20 0 14 6 34 12 45 10 16 10 23 -5 37 -16 16
-17 16 -17 -10 0 -15 -5 -27 -11 -27 -6 0 -8 -9 -4 -20 3 -11 3 -20 -2 -20 -9
0 -43 78 -43 98 0 6 -5 12 -11 12 -6 0 -8 -9 -4 -22z"/>
<path d="M8040 2165 c0 -8 4 -15 10 -15 5 0 7 7 4 15 -4 8 -8 15 -10 15 -2 0
-4 -7 -4 -15z"/>
<path d="M7640 2149 c0 -11 4 -18 10 -14 5 3 7 12 3 20 -7 21 -13 19 -13 -6z"/>
<path d="M7982 2150 c0 -14 2 -19 5 -12 2 6 2 18 0 25 -3 6 -5 1 -5 -13z"/>
<path d="M7741 2144 c0 -11 3 -14 6 -6 3 7 2 16 -1 19 -3 4 -6 -2 -5 -13z"/>
<path d="M8016 2133 c9 -38 14 -42 14 -10 0 14 -5 29 -10 32 -7 4 -8 -3 -4
-22z"/>
<path d="M7952 2135 c0 -11 4 -33 8 -50 7 -27 8 -27 8 -5 0 14 -4 36 -8 50 -6
20 -8 21 -8 5z"/>
<path d="M7991 2090 c0 -19 6 -46 14 -60 18 -31 18 -29 0 40 -12 49 -13 51
-14 20z"/>
<path d="M7750 2100 c0 -9 4 -20 9 -25 5 -6 11 -19 14 -30 4 -16 5 -15 6 6 0
14 -6 34 -14 45 -11 15 -14 16 -15 4z"/>
<path d="M7932 2070 c0 -14 2 -19 5 -12 2 6 2 18 0 25 -3 6 -5 1 -5 -13z"/>
<path d="M7870 2056 c0 -9 5 -16 10 -16 6 0 10 4 10 9 0 6 -4 13 -10 16 -5 3
-10 -1 -10 -9z"/>
<path d="M7712 2040 c0 -14 2 -19 5 -12 2 6 2 18 0 25 -3 6 -5 1 -5 -13z"/>
<path d="M7742 2040 c0 -14 2 -19 5 -12 2 6 2 18 0 25 -3 6 -5 1 -5 -13z"/>
<path d="M7681 2034 c0 -11 3 -14 6 -6 3 7 2 16 -1 19 -3 4 -6 -2 -5 -13z"/>
<path d="M7981 2018 c0 -15 -5 -30 -11 -33 -5 -3 -9 -30 -9 -58 1 -31 4 -40 6
-22 7 51 14 63 23 40 l9 -20 0 20 c0 11 -4 38 -8 60 -7 31 -9 34 -10 13z"/>
<path d="M7952 2010 c0 -14 2 -19 5 -12 2 6 2 18 0 25 -3 6 -5 1 -5 -13z"/>
<path d="M7862 1995 c0 -16 2 -22 5 -12 2 9 2 23 0 30 -3 6 -5 -1 -5 -18z"/>
<path d="M7921 2004 c0 -11 3 -14 6 -6 3 7 2 16 -1 19 -3 4 -6 -2 -5 -13z"/>
<path d="M8022 1965 c0 -16 2 -22 5 -12 2 9 2 23 0 30 -3 6 -5 -1 -5 -18z"/>
<path d="M8052 1960 c0 -19 2 -27 5 -17 2 9 2 25 0 35 -3 9 -5 1 -5 -18z"/>
<path d="M8112 1970 c0 -14 2 -19 5 -12 2 6 2 18 0 25 -3 6 -5 1 -5 -13z"/>
<path d="M8212 1970 c0 -14 2 -19 5 -12 2 6 2 18 0 25 -3 6 -5 1 -5 -13z"/>
<path d="M7612 1950 c0 -14 2 -19 5 -12 2 6 2 18 0 25 -3 6 -5 1 -5 -13z"/>
<path d="M8175 1950 c-4 -6 -3 -16 3 -22 13 -13 23 4 13 21 -7 10 -10 10 -16
1z"/>
<path d="M7931 1934 c0 -11 3 -14 6 -6 3 7 2 16 -1 19 -3 4 -6 -2 -5 -13z"/>
<path d="M7900 1920 c0 -19 3 -21 12 -12 9 9 9 15 0 24 -9 9 -12 7 -12 -12z"/>
<path d="M8262 1915 c0 -16 3 -52 8 -80 6 -41 7 -44 8 -15 0 19 -3 55 -7 80
-6 33 -9 37 -9 15z"/>
<path d="M8292 1920 c0 -14 2 -19 5 -12 2 6 2 18 0 25 -3 6 -5 1 -5 -13z"/>
<path d="M7651 1900 l-3 -35 -13 30 -14 30 0 -40 c0 -22 6 -62 13 -90 l14 -50
3 50 c2 48 2 49 6 10 6 -56 23 -70 23 -18 0 22 2 60 4 84 2 24 2 34 -1 22 -6
-34 -21 -28 -26 10 l-4 32 -2 -35z"/>
<path d="M7810 1902 c0 -18 -4 -32 -10 -32 -12 0 -13 -60 -1 -78 5 -9 11 13
15 58 4 40 5 74 2 78 -3 3 -6 -9 -6 -26z"/>
<path d="M7870 1914 c0 -11 4 -24 9 -29 5 -6 11 -19 14 -30 2 -11 3 -3 2 19
-4 41 -25 76 -25 40z"/>
<path d="M7926 1895 c-9 -25 -7 -47 4 -40 6 3 10 -4 10 -17 0 -13 5 -30 10
-38 15 -24 13 42 -4 80 -10 25 -14 29 -20 15z"/>
<path d="M8007 1893 c-4 -7 -3 -31 2 -55 6 -24 12 -54 14 -68 8 -46 6 30 -1
85 -4 29 -10 45 -15 38z"/>
<path d="M7867 1805 c7 -81 0 -82 -21 -4 l-15 54 5 -65 c4 -36 10 -69 15 -74
5 -6 9 -22 9 -37 0 -15 5 -31 10 -34 7 -4 8 8 4 34 -4 28 -3 41 5 41 6 0 11
-9 11 -21 0 -11 4 -17 10 -14 6 4 8 16 4 27 -5 18 -3 20 15 15 17 -4 21 -1 21
17 0 22 -17 46 -32 46 -4 0 -8 -7 -8 -17 0 -30 -15 -2 -27 50 l-11 52 5 -70z"/>
<path d="M7982 1840 c-1 -19 3 -53 7 -75 8 -35 9 -36 9 -10 0 17 -3 50 -7 75
-8 42 -9 43 -9 10z"/>
<path d="M8030 1846 c0 -8 5 -18 10 -21 6 -3 11 -23 12 -43 l1 -37 4 34 c3 19
2 44 -1 57 -7 26 -26 33 -26 10z"/>
<path d="M8460 1856 c0 -2 7 -9 15 -16 12 -10 15 -10 15 4 0 9 -7 16 -15 16
-8 0 -15 -2 -15 -4z"/>
<path d="M7766 1824 c-3 -9 -2 -23 4 -32 7 -14 9 -10 10 16 0 35 -5 41 -14 16z"/>
<path d="M8082 1815 c0 -16 2 -22 5 -12 2 9 2 23 0 30 -3 6 -5 -1 -5 -18z"/>
<path d="M8112 1820 c0 -14 2 -19 5 -12 2 6 2 18 0 25 -3 6 -5 1 -5 -13z"/>
<path d="M7690 1815 c0 -8 5 -15 10 -15 6 0 10 7 10 15 0 8 -4 15 -10 15 -5 0
-10 -7 -10 -15z"/>
<path d="M7720 1811 c0 -12 5 -21 10 -21 6 0 10 6 10 14 0 8 -4 18 -10 21 -5
3 -10 -3 -10 -14z"/>
<path d="M8302 1810 c0 -14 2 -19 5 -12 2 6 2 18 0 25 -3 6 -5 1 -5 -13z"/>
<path d="M8390 1760 c0 -18 5 -30 13 -30 9 0 12 10 9 30 -2 17 -8 30 -13 30
-5 0 -9 -13 -9 -30z"/>
<path d="M7962 1750 c0 -19 2 -27 5 -17 2 9 2 25 0 35 -3 9 -5 1 -5 -18z"/>
<path d="M7781 1735 l-3 -40 -11 32 -12 32 -24 -25 c-18 -19 -27 -22 -37 -13
-27 22 -15 -31 12 -56 28 -26 44 -32 44 -15 0 6 4 10 9 10 5 0 12 -34 16 -75
4 -41 11 -75 16 -75 5 0 10 -21 11 -47 1 -45 2 -46 5 -10 3 21 -3 67 -11 101
-16 62 -22 145 -10 133 4 -3 10 -21 14 -39 8 -33 8 -33 9 10 1 23 -3 42 -8 42
-6 0 -12 17 -14 38 l-4 37 -2 -40z m-36 -44 c3 -5 1 -12 -5 -16 -5 -3 -10 1
-10 9 0 18 6 21 15 7z"/>
<path d="M7811 1743 c-1 -17 4 -35 9 -38 6 -3 10 -24 10 -46 0 -21 4 -39 9
-39 12 0 2 88 -14 125 l-13 30 -1 -32z"/>
<path d="M8275 1749 c-4 -6 0 -18 9 -27 15 -15 16 -15 16 5 0 25 -15 38 -25
22z"/>
<path d="M8450 1746 c0 -2 7 -9 15 -16 9 -7 15 -8 15 -2 0 5 -7 12 -15 16 -8
3 -15 4 -15 2z"/>
<path d="M8375 1693 c-15 -22 -14 -25 15 -49 16 -14 30 -31 30 -37 0 -13 42
-77 51 -77 12 0 19 44 9 54 -7 7 -10 6 -10 -2 0 -7 -5 -12 -11 -12 -7 0 -9 10
-5 28 5 19 4 23 -3 12 -6 -8 -11 -12 -13 -10 -2 3 -14 20 -26 38 -25 35 -23
54 2 32 29 -23 34 -5 5 21 l-29 26 -15 -24z"/>
<path d="M7870 1609 c0 -5 5 -7 10 -4 6 3 10 8 10 11 0 2 -4 4 -10 4 -5 0 -10
-5 -10 -11z"/>
<path d="M7839 1573 c0 -36 -1 -37 -11 -13 -11 25 -12 25 -15 3 -3 -12 1 -31
6 -42 6 -11 12 -44 13 -73 1 -50 2 -51 5 -10 4 45 19 56 26 20 2 -13 3 -9 1 9
-1 20 3 33 12 37 8 3 14 14 14 24 0 32 -13 34 -25 5 -11 -25 -12 -22 -7 25 3
35 1 52 -7 52 -6 0 -11 -17 -12 -37z"/>
<path d="M7716 1539 c3 -35 10 -69 14 -74 5 -6 10 -26 13 -45 4 -33 4 -33 5 8
2 45 22 51 22 7 0 -13 5 -27 10 -30 6 -3 7 -18 4 -33 -5 -22 -4 -25 7 -14 10
10 11 19 1 45 -7 18 -12 44 -12 58 0 13 -7 47 -14 74 l-14 50 -1 -49 c-1 -62
-16 -51 -16 11 0 29 -5 48 -13 51 -10 3 -12 -9 -6 -59z"/>
<path d="M7902 1565 c0 -16 2 -22 5 -12 2 9 2 23 0 30 -3 6 -5 -1 -5 -18z"/>
<path d="M7932 1560 c0 -19 2 -27 5 -17 2 9 2 25 0 35 -3 9 -5 1 -5 -18z"/>
<path d="M7665 1560 c-3 -5 -1 -10 4 -10 6 0 11 5 11 10 0 6 -2 10 -4 10 -3 0
-8 -4 -11 -10z"/>
<path d="M7686 1494 c-3 -8 1 -28 9 -44 8 -16 16 -42 16 -57 1 -19 3 -22 6 -9
7 26 -7 126 -17 126 -4 0 -11 -7 -14 -16z"/>
<path d="M7892 1460 c0 -14 2 -19 5 -12 2 6 2 18 0 25 -3 6 -5 1 -5 -13z"/>
<path d="M7437 1338 c-4 -29 -4 -54 -2 -57 3 -2 5 5 5 17 0 11 5 24 10 27 12
8 13 52 1 59 -4 3 -11 -18 -14 -46z"/>
<path d="M7471 1364 c0 -12 -4 -43 -8 -69 -4 -34 -3 -46 5 -41 6 3 15 -2 21
-11 8 -15 10 -10 11 23 0 22 -4 44 -9 50 -5 5 -11 23 -14 39 -2 18 -5 22 -6 9z"/>
<path d="M7662 1333 c-8 -14 -9 -24 -2 -28 12 -7 24 18 18 37 -3 8 -9 5 -16
-9z"/>
<path d="M7750 1304 c0 -22 -4 -44 -9 -49 -5 -6 -6 -28 -2 -50 6 -36 8 -32 15
43 4 46 5 86 2 90 -3 3 -6 -13 -6 -34z"/>
<path d="M8015 1170 c-13 -20 -18 -60 -8 -60 20 1 28 17 23 45 -4 24 -7 27
-15 15z"/>
<path d="M7690 1160 c0 -5 7 -10 16 -10 8 0 12 5 9 10 -3 6 -10 10 -16 10 -5
0 -9 -4 -9 -10z"/>
<path d="M7650 1102 c0 -20 4 -22 38 -19 23 3 37 9 37 18 0 20 -34 23 -41 4
-6 -14 -8 -14 -20 2 -12 17 -13 16 -14 -5z"/>
<path d="M7591 1083 c0 -25 1 -26 9 -8 12 27 12 35 0 35 -5 0 -10 -12 -9 -27z"/>
<path d="M7495 1090 c-3 -5 -2 -17 3 -26 8 -14 10 -14 15 5 5 22 -7 38 -18 21z"/>
<path d="M7531 1068 c2 -31 2 -31 6 -5 5 31 23 37 23 6 0 -11 4 -18 9 -15 16
10 0 46 -20 46 -15 0 -19 -7 -18 -32z"/>
<path d="M7425 1080 c-3 -6 -11 -8 -16 -4 -5 3 -16 0 -24 -6 -9 -8 -32 -9 -69
-5 -52 7 -56 6 -56 -13 0 -20 5 -21 83 -18 45 2 90 4 100 5 13 1 17 8 15 23
-3 24 -23 35 -33 18z"/>
<path d="M7621 1074 c0 -11 3 -14 6 -6 3 7 2 16 -1 19 -3 4 -6 -2 -5 -13z"/>
<path d="M7668 1043 c-17 -20 -13 -43 6 -43 8 0 13 13 14 30 1 35 0 36 -20 13z"/>
<path d="M7935 1053 c-38 -2 -75 -9 -82 -14 -6 -6 -25 -10 -40 -9 -53 4 -73 0
-73 -13 0 -14 41 -16 90 -4 14 3 54 8 90 11 36 3 79 9 97 15 17 5 34 7 37 3 3
-3 6 0 6 6 0 7 -12 11 -27 10 -16 -1 -59 -4 -98 -5z"/>
<path d="M8030 1010 c-12 -8 -11 -10 8 -10 12 0 22 5 22 10 0 13 -11 13 -30 0z"/>
<path d="M7600 1000 c0 -5 5 -10 10 -10 6 0 10 5 10 10 0 6 -4 10 -10 10 -5 0
-10 -4 -10 -10z"/>
<path d="M7485 992 c-38 -7 -40 -22 -3 -22 20 0 39 4 43 10 3 5 12 7 20 3 8
-3 15 0 15 6 0 9 -30 11 -75 3z"/>
<path d="M7968 993 c6 -2 18 -2 25 0 6 3 1 5 -13 5 -14 0 -19 -2 -12 -5z"/>
<path d="M7340 983 c0 -8 -15 -13 -41 -13 -23 0 -38 -4 -34 -10 3 -5 21 -7 40
-5 24 3 35 1 35 -8 0 -8 3 -8 9 2 5 7 14 10 20 7 7 -5 11 1 11 16 0 19 -2 20
-10 8 -9 -13 -11 -13 -20 0 -6 10 -10 11 -10 3z"/>
<path d="M7765 982 c-22 -2 -44 -8 -50 -13 -7 -7 6 -8 39 -5 73 9 82 23 11 18z"/>
<path d="M8020 971 c0 -12 5 -21 10 -21 6 0 10 6 10 14 0 8 -4 18 -10 21 -5 3
-10 -3 -10 -14z"/>
<path d="M7401 964 c0 -11 3 -14 6 -6 3 7 2 16 -1 19 -3 4 -6 -2 -5 -13z"/>
<path d="M7605 960 c-3 -5 -1 -10 4 -10 6 0 11 5 11 10 0 6 -2 10 -4 10 -3 0
-8 -4 -11 -10z"/>
<path d="M7648 963 c7 -3 16 -2 19 1 4 3 -2 6 -13 5 -11 0 -14 -3 -6 -6z"/>
<path d="M7980 955 c-10 -13 -9 -15 8 -15 15 0 20 5 16 15 -4 8 -7 15 -9 15
-1 0 -8 -7 -15 -15z"/>
<path d="M7910 950 c-14 -4 -44 -8 -67 -9 -24 -1 -43 -6 -43 -12 0 -7 17 -9
53 -4 84 10 108 16 101 26 -6 10 -9 10 -44 -1z"/>
<path d="M7217 920 c-3 -11 -1 -20 4 -20 5 0 9 9 9 20 0 11 -2 20 -4 20 -2 0
-6 -9 -9 -20z"/>
<path d="M7401 924 c0 -11 3 -14 6 -6 3 7 2 16 -1 19 -3 4 -6 -2 -5 -13z"/>
<path d="M7468 933 c6 -2 18 -2 25 0 6 3 1 5 -13 5 -14 0 -19 -2 -12 -5z"/>
<path d="M7728 932 c-10 -2 -18 -8 -18 -14 0 -6 10 -8 23 -4 12 3 30 6 40 6
10 0 16 4 12 9 -5 10 -22 10 -57 3z"/>
<path d="M7313 895 c0 -22 2 -30 4 -17 2 12 2 30 0 40 -3 9 -5 -1 -4 -23z"/>
<path d="M7275 910 c-3 -5 -1 -10 4 -10 6 0 11 5 11 10 0 6 -2 10 -4 10 -3 0
-8 -4 -11 -10z"/>
<path d="M7515 900 c3 -5 8 -10 11 -10 2 0 4 5 4 10 0 6 -5 10 -11 10 -5 0 -7
-4 -4 -10z"/>
<path d="M7540 900 c0 -5 14 -8 30 -7 44 5 49 17 7 17 -20 0 -37 -4 -37 -10z"/>
<path d="M7916 901 c-4 -7 -5 -15 -2 -18 9 -9 19 4 14 18 -4 11 -6 11 -12 0z"/>
<path d="M7480 889 c0 -5 5 -7 10 -4 6 3 10 8 10 11 0 2 -4 4 -10 4 -5 0 -10
-5 -10 -11z"/>
<path d="M7280 865 c0 -8 2 -15 4 -15 2 0 6 7 10 15 3 8 1 15 -4 15 -6 0 -10
-7 -10 -15z"/>
<path d="M7340 870 c0 -5 9 -10 19 -10 11 0 23 5 26 10 4 6 -5 10 -19 10 -14
0 -26 -4 -26 -10z"/>
<path d="M7235 860 c-3 -5 -1 -10 4 -10 6 0 11 5 11 10 0 6 -2 10 -4 10 -3 0
-8 -4 -11 -10z"/>
<path d="M7457 843 c-4 -3 -7 -11 -7 -17 0 -6 5 -5 12 2 6 6 9 14 7 17 -3 3
-9 2 -12 -2z"/>
<path d="M7502 830 c0 -14 2 -19 5 -12 2 6 2 18 0 25 -3 6 -5 1 -5 -13z"/>
<path d="M7381 795 l1 -50 9 39 c6 26 6 43 -1 50 -7 7 -10 -6 -9 -39z"/>
<path d="M7447 793 c-11 -10 -8 -61 3 -68 6 -4 10 10 10 34 0 42 -2 46 -13 34z"/>
<path d="M7471 750 c0 -35 3 -50 8 -40 5 8 5 33 1 55 -8 40 -8 40 -9 -15z"/>
<path d="M7410 703 c0 -21 3 -24 9 -14 5 8 7 20 4 28 -8 21 -13 15 -13 -14z"/>
<path d="M5602 2056 c-41 -37 -42 -40 -42 -100 1 -49 3 -57 11 -42 6 10 9 33
6 52 -3 18 -1 36 4 39 5 4 9 -30 9 -82 0 -56 4 -83 9 -74 5 8 9 50 9 93 -1 43
2 81 6 85 3 3 6 -35 6 -86 0 -58 4 -90 10 -86 5 3 8 41 7 88 -2 45 0 90 5 100
5 10 8 26 6 35 -2 13 -12 8 -46 -22z"/>
<path d="M5657 1973 c-12 -11 -8 -50 7 -62 18 -15 29 10 20 45 -6 24 -15 30
-27 17z"/>
<path d="M5468 1953 c7 -3 16 -2 19 1 4 3 -2 6 -13 5 -11 0 -14 -3 -6 -6z"/>
<path d="M5505 1941 c-3 -5 -1 -12 5 -16 5 -3 10 1 10 9 0 18 -6 21 -15 7z"/>
<path d="M5531 1924 c0 -11 3 -14 6 -6 3 7 2 16 -1 19 -3 4 -6 -2 -5 -13z"/>
<path d="M5400 1915 c0 -8 2 -15 4 -15 2 0 6 7 10 15 3 8 1 15 -4 15 -6 0 -10
-7 -10 -15z"/>
<path d="M5496 1903 c-12 -12 -6 -33 9 -33 8 0 15 6 15 14 0 17 -14 28 -24 19z"/>
<path d="M5670 1877 c0 -8 7 -14 15 -14 11 0 12 4 4 14 -6 7 -13 13 -15 13 -2
0 -4 -6 -4 -13z"/>
<path d="M5733 1805 c0 -44 2 -61 4 -37 2 23 2 59 0 80 -2 20 -4 1 -4 -43z"/>
<path d="M5556 1848 c-3 -13 -5 -39 -5 -58 1 -27 3 -22 9 20 9 58 7 77 -4 38z"/>
<path d="M5478 1833 c-11 -19 -14 -34 -8 -43 14 -23 32 2 28 40 l-3 32 -17
-29z"/>
<path d="M5522 1824 c-1 -23 -4 -57 -7 -75 l-5 -34 11 33 c5 19 8 53 6 75 l-4
42 -1 -41z"/>
<path d="M5295 1840 c-3 -5 -1 -10 4 -10 6 0 11 5 11 10 0 6 -2 10 -4 10 -3 0
-8 -4 -11 -10z"/>
<path d="M5695 1811 c-3 -5 -1 -12 5 -16 5 -3 10 1 10 9 0 18 -6 21 -15 7z"/>
<path d="M5612 1790 c0 -14 2 -19 5 -12 2 6 2 18 0 25 -3 6 -5 1 -5 -13z"/>
<path d="M5582 1775 c0 -16 2 -22 5 -12 2 9 2 23 0 30 -3 6 -5 -1 -5 -18z"/>
<path d="M5371 1764 c0 -11 3 -14 6 -6 3 7 2 16 -1 19 -3 4 -6 -2 -5 -13z"/>
<path d="M5672 1755 c0 -16 2 -22 5 -12 2 9 2 23 0 30 -3 6 -5 -1 -5 -18z"/>
<path d="M5212 1680 c0 -14 2 -19 5 -12 2 6 2 18 0 25 -3 6 -5 1 -5 -13z"/>
<path d="M5680 1674 c0 -8 5 -12 10 -9 6 4 8 11 5 16 -9 14 -15 11 -15 -7z"/>
<path d="M5241 1664 c0 -11 3 -14 6 -6 3 7 2 16 -1 19 -3 4 -6 -2 -5 -13z"/>
<path d="M5332 1640 c0 -14 2 -19 5 -12 2 6 2 18 0 25 -3 6 -5 1 -5 -13z"/>
<path d="M5362 1600 c0 -19 2 -27 5 -17 2 9 2 25 0 35 -3 9 -5 1 -5 -18z"/>
<path d="M5322 1540 c-8 -41 -12 -88 -9 -105 3 -24 4 -21 6 13 0 24 6 52 12
63 5 11 9 39 7 62 -3 39 -4 36 -16 -33z"/>
<path d="M5422 1545 c0 -16 2 -22 5 -12 2 9 2 23 0 30 -3 6 -5 -1 -5 -18z"/>
<path d="M5391 1534 c0 -11 3 -14 6 -6 3 7 2 16 -1 19 -3 4 -6 -2 -5 -13z"/>
<path d="M5346 1485 c4 -8 8 -15 10 -15 2 0 4 7 4 15 0 8 -4 15 -10 15 -5 0
-7 -7 -4 -15z"/>
<path d="M5448 1494 c-5 -4 -8 -19 -8 -33 0 -18 3 -22 11 -14 6 6 9 21 7 33
-1 12 -6 18 -10 14z"/>
<path d="M5060 1464 c0 -14 4 -23 9 -20 5 3 7 15 4 26 -7 28 -13 25 -13 -6z"/>
<path d="M5391 1453 c-1 -17 4 -35 9 -38 12 -7 12 22 0 50 -7 17 -9 15 -9 -12z"/>
<path d="M5021 1454 c0 -11 3 -14 6 -6 3 7 2 16 -1 19 -3 4 -6 -2 -5 -13z"/>
<path d="M5084 1417 c-6 -13 -7 -32 -3 -43 6 -17 8 -17 14 -2 3 9 5 28 3 42
l-3 26 -11 -23z"/>
<path d="M5212 1420 c0 -14 2 -19 5 -12 2 6 2 18 0 25 -3 6 -5 1 -5 -13z"/>
<path d="M5438 1423 c7 -3 16 -2 19 1 4 3 -2 6 -13 5 -11 0 -14 -3 -6 -6z"/>
<path d="M4978 1393 c7 -3 16 -2 19 1 4 3 -2 6 -13 5 -11 0 -14 -3 -6 -6z"/>
<path d="M5387 1351 c-20 -40 -17 -49 7 -22 10 11 16 28 14 38 -3 14 -7 10
-21 -16z"/>
<path d="M5040 1355 c0 -8 5 -15 10 -15 6 0 10 7 10 15 0 8 -4 15 -10 15 -5 0
-10 -7 -10 -15z"/>
<path d="M5242 1320 c0 -14 2 -19 5 -12 2 6 2 18 0 25 -3 6 -5 1 -5 -13z"/>
<path d="M5712 1277 c-1 -10 -9 -20 -17 -23 -9 -4 -15 -19 -15 -37 0 -29 -1
-30 -15 -11 -13 17 -15 10 -16 -76 -2 -84 -3 -88 -8 -38 -9 84 -21 82 -21 -5
0 -42 5 -79 10 -82 6 -3 10 -16 10 -28 1 -22 1 -22 13 -2 7 11 15 63 18 115 6
95 6 95 5 -28 0 -67 2 -122 7 -122 4 0 7 37 7 83 0 45 4 100 8 122 6 34 8 27
12 -50 4 -65 6 -79 10 -50 3 22 3 87 -1 145 -3 58 -6 97 -7 87z"/>
<path d="M5821 1734 c0 -11 3 -14 6 -6 3 7 2 16 -1 19 -3 4 -6 -2 -5 -13z"/>
<path d="M6787 1104 c-3 -50 -5 -55 -13 -34 -8 24 -9 23 -15 -15 l-6 -40 -2
38 c0 20 -6 37 -12 37 -9 0 -10 -24 -4 -87 4 -49 8 -112 8 -140 0 -29 4 -53 9
-53 4 0 8 36 8 81 0 71 2 80 18 77 13 -2 18 -15 20 -53 3 -66 10 -95 23 -95 6
0 8 9 4 19 -3 10 -6 40 -7 65 0 26 -4 49 -9 51 -4 3 -7 48 -6 100 1 106 -10
140 -16 49z"/>
<path d="M6782 920 c0 -14 2 -19 5 -12 2 6 2 18 0 25 -3 6 -5 1 -5 -13z"/>
<path d="M6776 773 c-11 -11 -6 -23 9 -23 8 0 15 4 15 9 0 13 -16 22 -24 14z"/>
<path d="M6704 1565 c-4 -8 0 -22 7 -31 12 -14 14 -14 26 2 9 13 10 21 2 31
-15 17 -28 17 -35 -2z"/>
<path d="M6082 785 l1 -80 7 70 c3 39 3 74 -2 80 -4 5 -7 -27 -6 -70z"/>
<path d="M6142 777 c-1 -42 -7 -85 -13 -95 -8 -13 -9 -37 -3 -78 l8 -59 7 55
c5 52 6 53 7 13 1 -24 7 -43 12 -43 13 0 13 113 0 126 -5 5 -11 43 -13 84 l-3
75 -2 -78z"/>
<path d="M6112 780 c0 -50 1 -52 8 -21 5 19 4 44 0 55 -6 15 -9 5 -8 -34z"/>
<path d="M6312 715 c0 -16 2 -22 5 -12 2 9 2 23 0 30 -3 6 -5 -1 -5 -18z"/>
<path d="M6336 1142 c-3 -5 -8 -49 -11 -98 -5 -77 -4 -87 8 -72 9 12 14 45 15
98 1 77 -1 89 -12 72z"/>
<path d="M6051 224 c0 -11 3 -14 6 -6 3 7 2 16 -1 19 -3 4 -6 -2 -5 -13z"/>
<path d="M5890 128 c0 -49 5 -47 13 5 3 20 2 37 -4 37 -5 0 -9 -19 -9 -42z"/>
</g>
</svg>
